<?xml version="1.0" encoding="UTF-8"?>
<svg id="Capa_2" data-name="Capa 2" xmlns="http://www.w3.org/2000/svg" viewBox="0 0 52.1872 52.1872">
  <defs>
    <style>
      .cls-1 {
        fill: #fff;
        stroke-width: 0px;
      }
    </style>
  </defs>
  <path class="cls-1" d="m25.79,50.1035c13.4153,0,24.3284-10.9131,24.3284-24.3284S39.2053,1.4468,25.79,1.4468,1.4616,12.3599,1.4616,25.7751s10.9131,24.3284,24.3284,24.3284Zm-5.4283-13.3304c-.9613,0-1.7246-2.4738-1.6963-5.499.0283-3.0251.834-5.4707,1.8094-5.4707.9613,0,1.7246,2.4738,1.6963,5.499-.0283,3.0251-.834,5.4707-1.8094,5.4707Zm10.7576-.0848c-.9613,0-1.7246-2.4738-1.6963-5.499s.834-5.4707,1.8094-5.4707c.9613,0,1.7246,2.4738,1.6963,5.499-.0283,3.0251-.834,5.4707-1.8094,5.4707ZM7.9501,23.9233c.2686-.1414.5654-.1555.8482-.0707.2686.0848.5654.1414.9189.1696.7351-8.2979,7.676-14.7157,16.0729-14.7157s15.253,6.3471,16.0587,14.5602c.5654-.1131.933-.2262.9471-.2262.5513-.1838,1.2157.1414,1.3995.7068.1979.5796-.1272,1.2157-.7068,1.3995-.311.099-3.0534.9613-5.3859.2262-.5796-.1838-.9047-.8058-.7209-1.3995.0848-.2827.2827-.523.5513-.6503.2686-.1414.5654-.1555.8482-.0707.1979.0565.4099.1131.6503.1414-.7351-6.9409-6.6016-12.2702-13.6414-12.2702s-12.7933,5.2445-13.6132,12.0864c.3393-.0848.5796-.1555.6503-.1696.5372-.1838,1.2157.1414,1.3995.7068.1979.5796-.1272,1.2157-.7068,1.3995-.311.099-3.0676.9613-5.3859.2262-.2827-.0848-.5089-.2827-.6503-.5513-.1414-.2686-.1555-.5654-.0707-.8482.0848-.2827.2827-.523.5513-.6503h-.0141Z"/>
</svg>