<?xml version="1.0" encoding="UTF-8"?>
<svg id="Capa_3" data-name="Capa 3" xmlns="http://www.w3.org/2000/svg" viewBox="0 0 210 210">
  <defs>
    <style>
      .cls-1 {
        fill: #fff;
        stroke-width: 0px;
      }
    </style>
  </defs>
  <path class="cls-1" d="m87.18,103.74c3.23,0,5.99-8.17,6.08-18.38.1-10.21-2.47-18.43-5.7-18.48-3.23-.05-5.99,8.17-6.08,18.38-.1,10.16,2.47,18.43,5.7,18.48Z"/>
  <path class="cls-1" d="m123.33,103.45c3.23,0,5.99-8.17,6.08-18.38.1-10.21-2.47-18.43-5.7-18.48s-5.99,8.17-6.08,18.38c-.1,10.21,2.47,18.43,5.7,18.48Z"/>
  <path class="cls-1" d="m105.42,185.39c-45.08,0-81.75-36.72-81.75-81.79S60.34,21.85,105.42,21.85s81.75,36.67,81.75,81.75-36.67,81.75-81.75,81.75v.05Zm0-159.6c-42.89,0-77.8,34.91-77.8,77.81s34.91,77.8,77.8,77.8,77.81-34.91,77.81-77.8S148.36,25.79,105.42,25.79Z"/>
  <path class="cls-1" d="m47.19,109.01c-.76,0-1.42-.48-1.66-1.24-.28-.9.19-1.9,1.14-2.23.38-.14,9.5-3.09,16.86-.76.95.28,1.42,1.28,1.14,2.23-.29.95-1.28,1.42-2.23,1.14-6.27-2-14.63.71-14.68.71-.19.05-.38.1-.57.1v.05Z"/>
  <path class="cls-1" d="m147.89,109.01c-.76,0-1.42-.48-1.66-1.24-.28-.9.19-1.9,1.14-2.23.38-.14,9.5-3.09,16.86-.76.95.28,1.42,1.28,1.14,2.23s-1.28,1.42-2.23,1.14c-6.27-2-14.63.71-14.68.71-.19.05-.38.1-.57.1v.05Z"/>
  <path class="cls-1" d="m105.47,156.99c-28.83,0-52.3-23.47-52.3-52.3h4.18c0,26.55,21.57,48.12,48.12,48.12s48.12-21.56,48.12-48.12h4.18c0,28.83-23.46,52.3-52.3,52.3Z"/>
</svg>