<?xml version="1.0" encoding="UTF-8"?>
<svg id="Capa_2" data-name="Capa 2" xmlns="http://www.w3.org/2000/svg" viewBox="0 0 52.1872 52.1872">
  <defs>
    <style>
      .cls-1 {
        fill: #fff;
        stroke-width: 0px;
      }
    </style>
  </defs>
  <path class="cls-1" d="m50.1199,29.6363c.0283-.2337.0707-.482.099-.7157.1414-1.1977.2121-2.4099.1979-3.6368,0-.3505-.0283-.7011-.0566-1.0516-.4665-6.2512-3.2093-12.0204-7.7475-16.2269-4.5524-4.221-10.4196-6.4411-16.513-6.222-5.3441.1899-10.3347,2.1616-14.4064,5.74-3.9586,3.4615-6.7437,8.2376-7.8324,13.4372-.0566.2775-.1131.555-.1555.8325-.1414,1.1977.1838,2.3515.509,3.4615.2686.964.5372,1.8695.509,2.7897-.099.9494-.7069,1.6943-1.3431,2.4976-.6928.8763-1.4279,1.7673-1.6117,3.038v.0438c0,.3213.1696.7887.3252,1.11.0848.1607.1838.3359.2969.4966.2686.409.6221.8179,1.1169,1.2853h.0141c.3676.3067.7352.5842,1.0886.8617,1.0321.7887,1.9934,1.5336,2.8134,2.4537.1414.1607.2686.3067.3676.4528,1.64,4.703,5.8389,7.7264,12.8372,9.2454.2403.073.4948.1461.7493.2045,2.0641.5112,4.1848.7449,6.3196.6719,3.2517-.1168,6.3903-.8909,9.3027-2.3369.2262-.1168.4383-.2191.6362-.3213,1.0462-.4966,1.8662-1.2999,2.2762-2.2054.82-1.5044,1.9652-2.5706,2.9831-3.4031l.3817-.3067c.9614-.7157,1.8945-1.4898,2.0076-2.5852.0424-.3944.0565-.8179.0707-1.2269.0848-1.8987.1838-3.8559,2.0641-4.776l.1272-.1022c.099-.073.1979-.1607.2969-.2337,1.0603-.8617,2.05-1.7527,2.2903-3.2571l-.0141-.0146Zm-3.7465,2.8043l-.4241.3067c-.509.1753-.919.3797-1.2583.628-.1697.1168-.311.2629-.4524.409-.9614,1.2269-.8059,2.6582-.6503,4.0604.0424.4236.099.8471.099,1.2707.0283.7595-.4383,1.2999-1.0321,1.9133-.0707.0438-.1414.0876-.2262.1168h-.0283l-.6079.5258c-.9048.7741-1.7107,1.6504-2.5024,2.483-.6362.6719-1.2865,1.3583-1.9652,2.001-3.1527,2.9211-9.1048,3.2424-13.6289,2.556-.2545-.0438-.509-.0876-.7634-.1315-5.231-.9786-10.1368-2.2054-12.8937-6.5433-.2545-.409-.4948-.8325-.721-1.2415-.5514-1.0078-1.131-2.0448-2.0217-2.8481-.5231-.4674-1.1027-.8617-1.6541-1.2561-.7634-.5258-1.5552-1.0808-2.1914-1.7965-.099-.1168-.1838-.2337-.2545-.3505-.0707-.1168-.1414-.2483-.1979-.3797l-.0283-.1315c-.1131-.4236-.1979-.7449,0-1.0808.3393-.6573.8483-1.2123,1.3289-1.7527.7917-.8909,1.6258-1.7965,1.6683-3.1402.099-1.0662-.1979-2.0448-.4948-2.9795-.3393-1.0954-.6503-2.1178-.3534-3.2278.0424-.2921.099-.555.1697-.8179C7.5227,10.9119,16.0902,3.6091,26.1281,3.2586c11.8475-.409,21.8571,8.8364,22.7902,21.0467.0283.3505.0424.7011.0566,1.0516.0566,1.2123.0141,2.4537-.1272,3.6806-.0283.2775-.0707.4966-.099.7157-.3959,1.2123-1.3148,1.9425-2.3752,2.702v-.0146Z"/>
  <path class="cls-1" d="m21.1657,26.2915c.9614-.0292,1.6683-2.5998,1.5693-5.7254s-.9614-5.6377-1.9369-5.6085c-.9614.0292-1.6683,2.5997-1.5693,5.7253.099,3.1256.9614,5.6378,1.9369,5.6086Z"/>
  <path class="cls-1" d="m31.9103,25.722c.9614-.0292,1.6683-2.5998,1.5693-5.7254-.099-3.1256-.9614-5.6377-1.9369-5.6085-.9614.0292-1.6683,2.5997-1.5693,5.7253.099,3.1256.9614,5.6378,1.9369,5.6086Z"/>
  <path class="cls-1" d="m44.0267,25.2693s-.099-.1022-.1697-.1315c-.3817-.1607-.7917-.3213-1.1876-.3651-.2403-.0292-.4665,0-.6928.073-.509.1753-.9755.6865-1.4845.4966-.1838-.073-.3393-.2191-.5231-.3067-.41-.1753-.8765.0876-1.23.3797-.0707.0584-.1555.1315-.1555.2337,0,.073.0424.1315.0848.1899.2403.2775.5938.4236.9331.4236.3252,0,.7634-.1899.7917.3359.0283.7303.0707,1.519.0141,2.2493-.1131,1.4021-1.8662,2.3807-2.9407,2.9795-1.0886.5988-1.8945,1.0078-2.1772,2.3223-.2686,1.2269-.7493,2.2054-1.2583,3.3593-.6503,1.9425-3.3507,2.0302-5.231,2.629-.1555.0292-.311.0438-.4807.0584-.3252.0292-.6503.0584-.9755.073h-.721c-.2403,0-.4807-.0146-.721-.0292-.7069-.0876-1.3996-.2191-2.0924-.3797-.1131-.0292-.2262-.0584-.3393-.0876-2.5024-.6426-4.6796-1.7381-6.5175-3.5638-.0848-.073-.1697-.1315-.2545-.2045-.7776-.5988-1.5127-1.2415-2.1772-1.9425-.0707-.0876-.1414-.1753-.2121-.2629-.2121-.2629-.3958-.5404-.5514-.8325-.0566-.1022-.099-.1899-.1555-.2921-.8907-1.7965.4666-3.8997-.4383-5.6378.2969.4382.721.2629.9472.2775h.2262c.2545-.0438.4948-.1315.721-.2483s.4241-.2921.6221-.5112v-.1461c-.2121-.2045-.4383-.3651-.6645-.4674-.2262-.1022-.4665-.1753-.7352-.2045-.8765-.0292-1.7107.8909-2.7145.3359-.0707-.073-.3534-.1022-.6221-.0146-.0848.0292-.1697.073-.2545.1168-.1131.2191-.2545.3797-.2403.5258.1555.5842,1.0179.7011,1.5834.3944.3252,1.4606.2404,2.9357-.2827,4.4255-.1272.5988.0424,1.3291.3817,1.8695.0566.1022.1131.2045.1838.3067.1131.1753.2403.3359.3676.4966.0707.073.1414.1607.2121.2337,1.2583.8909,2.5448,1.7965,3.7465,2.8043.0848.073.1697.1461.2545.2191,1.0603,1.0808,2.1065,2.2201,3.4779,2.7459.099.0584.2121.1022.311.1607,2.0783,1.0078,4.3686,1.5044,6.7155,1.2707.2403,0,.4665-.0146.7069-.0438.3534-.0292.6928-.073,1.0321-.1168.1697-.0292.3393-.0584.509-.0876,2.2196-.5258,5.6269-1.2269,5.9662-3.8851.2262-1.7819.1697-3.5346,1.7672-4.703.1272-.1022.2686-.2045.41-.3067,1.2159-.8325,2.9689-1.4606,3.69-2.8773.509-1.0078.2969-2.2347.4948-3.3593.41.073.82.1168,1.2159.0146.3959-.1022.7634-.3944.8624-.8033,0-.0584.0141-.1168,0-.1753l-.0283-.0146Z"/>
</svg>