<?xml version="1.0" encoding="UTF-8"?>
<svg id="Capa_3" data-name="Capa 3" xmlns="http://www.w3.org/2000/svg" viewBox="0 0 743.246 210">
  <defs>
    <style>
      .cls-1 {
        fill: rgba(46, 46, 46, .5);
        stroke-width: 0px;
      }
    </style>
  </defs>
  <path class="cls-1" d="m743.246,214v-47.995h-1.883v-30.772h-3.389v-7.851h-8.537v-19.755h-5.65v-12.917h3.014v-2.913h-20.339v-19.375h-6.026v-7.725h2.008v-12.664l-4.143-3.039-5.148,3.166v12.664h2.26v7.598h-5.273v-13.423h-14.564v13.423h-3.64v75.095h-20.591v26.847h-5.399v6.585h-10.421v-28.366h-2.636v-5.952h-8.914v5.825h-3.767v-3.039h-1.758v-3.673l-3.892-2.279-3.515,1.773-3.014-1.773-3.263,1.393v7.852h-1.633v28.619h-2.134v-14.816h-2.762v-31.406h-3.264v-6.838h-12.052v6.965h-12.304v48.629h-5.649v-17.729h-2.26v-31.026h-4.017v-6.712h-3.641v-4.685l-3.139-1.646-3.892,1.773v3.546h-4.143v7.725h-7.282v1.773h-3.013v15.703h-2.637v-81.301h-4.269v-3.419h-9.793v-8.865h-5.524v-5.445l-4.519-2.406-4.52,2.279v3.292h-4.393v11.904h-4.897v50.148h-9.667v8.105h-7.658v-9.751l-17.828,10.764h-4.269v28.367h-9.166v2.912h-5.022v6.206h-3.389v-5.826h-11.048v21.402h-2.637v-28.113h-1.884v-17.602h-2.134v-12.664l-3.515-4.685v-8.485l-3.264-1.646-3.641,2.026v8.105l-2.51,4.812v-8.358h-12.681v8.231h-1.758v30.013h-2.008v13.296h-2.637v-13.296h-1.381v-17.476h-3.39v-6.458h-12.429v6.458l-12.304-.127v8.738l-2.134,1.393v7.472h-6.277v-62.052h-3.014v-10.764h-11.926v10.637h-12.429v63.318h-4.144v-44.196h1.13v-2.913h-4.519v-9.498h-4.897v-5.825l-5.022-2.279-4.519,2.153v5.952h-6.277v9.878h-9.667v2.659h-4.52v49.262h-2.762v-23.934h-4.896v-4.306h1.883v-6.965l-3.39-1.9-3.766,1.9v6.965h1.882v4.432h-4.519v-8.231h-4.896v-34.825h-13.058v-11.144h-12.429v11.144h-2.134v9.244h-8.412v10.004h-2.134v-49.388h-8.16v-12.537l-5.022-4.939-4.77,4.939v12.664h-7.659v3.293h-3.641v115.619h-18.079v-28.113h-2.637v-49.768h-3.515v-2.533h-7.282v-10.511h-4.269v-5.762l-3.263-2.406-3.39,2.406v7.155h-3.766v9.371h-5.148v84.846h-3.138v-30.9h.753v-2.153h-3.014v-5.825h-9.416v5.825h-5.273v-6.142s-.44-2.976-3.704-2.976-3.641,1.963-3.641,1.963c0,0-.627-1.837-3.955-1.837-2.888,0-3.138,2.849-3.138,2.849v6.269h-2.134v1.773h1.129v44.702h-3.766v-44.702h1.13v-1.773h-2.888v-6.206h-9.165v5.445h-5.65v-6.332s-.628-2.026-3.515-2.026c-2.574,0-3.515,2.026-3.515,2.026,0,0-.502-2.09-3.453-2.09-2.26,0-3.328,1.963-3.328,1.963v7.092h-1.507v28.493h-2.634v-85.226h1.004v-2.659h-4.143v-9.878h-14.438v9.751h-14.564v88.012h-6.277v-44.069h1.004v-2.026h-3.515v-7.345h-10.923v7.345h-4.771v-4.179h1.255v-7.092l-3.264-2.026-4.018,2.279v6.965h1.255v4.179H0v78.767h743.12"/>
</svg>