<?xml version="1.0" encoding="UTF-8"?>
<svg id="Capa_1" data-name="Capa 1" xmlns="http://www.w3.org/2000/svg" xmlns:xlink="http://www.w3.org/1999/xlink" viewBox="0 0 386.2563 295.2">
  <defs>
    <style>
      .cls-1 {
        fill: #2e2e2e;
      }

      .cls-1, .cls-2 {
        stroke-width: 0px;
      }

      .cls-2 {
        fill: none;
      }

      .cls-3 {
        clip-path: url(#clippath);
      }
    </style>
    <clipPath id="clippath">
      <rect class="cls-2" x="61.3017" y="-54.7431" width="260.053" height="366.215" transform="translate(-26.1085 204.5559) rotate(-53.169)"/>
    </clipPath>
  </defs>
  <g class="cls-3">
    <path class="cls-1" d="m257.6429,285.6102c15.589,4.765,33.424-3.21,37.748-18.562,4.324-15.352-5.837-32.877-21.42-38.238l-1.31,5.816c25.605,6.107,52.725.88,73.21-13.522,20.486-14.403,33.33-39.26,34.131-65.212.85-26.93-10.878-53.064-31.744-71.921-20.865-18.857-49.726-28.003-77.337-24.796-34.183,3.956-62.391,24.067-83.583,48.832l5.476,3.124c3.684-12.037-5.076-27.311-18.728-28.936-12.8795-1.533-24.1386,10.878-21.0442,23.336.872,3.545,5.4853,3.4319,6.1679.113,4.2427-20.596,6.654-43.99-3.5009-64.252-10.9598-21.916-35.0539-34.215-58.7029-34.425C46.544,6.5432,7.1152,52.1262,6.1673,99.7892c-.4986,25.014,8.3033,50.347,24.6288,70.61,2.5455,3.184,7.3661-.417,4.8026-3.576C6.974,131.3022,4.8169,81.9522,30.7906,47.6992c13.3291-17.583,33.4275-30.774,56.1914-33.93,22.764-3.157,47.3515,5.005,60.3696,25.082,13.0181,20.078,9.9959,44.9301,5.673,65.954l6.1679.112c-2.1251-8.614,5.2927-17.556,14.4124-16.622,9.12.934,15.932,12.12,13.375,20.458-1.004,3.266,3.259,5.708,5.475,3.124,17.829-20.862,40.867-38.459,68.78-44.745,25.407-5.722,52.536-1.328,74.711,14.603,22.175,15.932,35.603,38.833,37.666,64.226,2.063,25.394-7.123,49.272-25.212,65.131-19.808,17.351-48.313,23.945-75.244,17.521-3.44-.811-4.698,4.668-1.31,5.817,12.257,4.184,20.87,17.995,17.634,30.182-3.235,12.186-17.427,19.096-29.764,15.34-3.84-1.187-5.991,4.414-2.081,5.615l.008.043Z"/>
  </g>
</svg>