<?xml version="1.0" encoding="UTF-8"?>
<svg id="Capa_1" data-name="Capa 1" xmlns="http://www.w3.org/2000/svg" xmlns:xlink="http://www.w3.org/1999/xlink" viewBox="0 0 193.145 141.12">
  <defs>
    <style>
      .cls-1 {
        fill: #ffc612;
      }

      .cls-1, .cls-2 {
        stroke-width: 0px;
      }

      .cls-2 {
        fill: none;
      }

      .cls-3 {
        clip-path: url(#clippath);
      }
    </style>
    <clipPath id="clippath">
      <rect class="cls-2" x="7.3384" y="3.7424" width="183" height="133"/>
    </clipPath>
  </defs>
  <g class="cls-3">
    <g>
      <path class="cls-1" d="m11.2364,23.3807c3.8188-6.0585,10.363-9.9702,17.2241-12.0056,6.8453-2.0354,14.055-2.4011,21.2013-2.7509,46.2056-2.274,93.4256-2.592,139.6306-4.8818,3.502,11.5286-1.917,25.1561-12.375,31.1033-3.676,2.0831-7.828,3.1326-12.027,3.2439v13.1187c0,3.069-4.754,3.069-4.754,0v-13.389c-6.132-.8746-11.995-3.721-16.146-8.3324,1.822,2.7033,1.616,6.3447.032,9.1911-.032,18.8591-.048,37.7183-.08,56.5774,0,3.069-4.7533,3.069-4.7533,0,.0317-17.5075.0475-35.015.0792-52.5067-4.0723,1.463-9.0319.0477-11.9158-3.2598,3.1374,7.7918,4.6744,16.3468,3.3909,24.6473-1.2835,8.3006-5.5618,16.2831-12.3912,21.1331-3.7871,2.6873-8.3664,4.2934-12.9775,4.5637-.1584,8.6345-.301,17.2849-.4595,25.9194-.0475,3.069-4.8012,3.069-4.7536,0,.1584-8.714.301-17.4121.4595-26.1261-2.0916-.3021-4.1357-.9064-6.0689-1.8446-9.7767-4.7386-14.2926-15.981-17.9688-26.2374,1.1726,3.1326-.5071,7.0443-3.5811,8.3324-3.074,1.288-7.0354-.2545-8.4298-3.2916,1.7905,4.993,3.5494,10.0497,4.0564,15.329.5071,5.2793-.3644,10.8766-3.4543,15.17-2.8046,3.9118-7.2255,6.2811-11.9792,7.108.3644,10.0815.7289,20.1473,1.0933,30.2283.111,3.069-4.6427,3.069-4.7536,0-.3644-9.97-.713-19.956-1.0775-29.9262-1.9332-.0795-3.8505-.3976-5.6885-.97-7.9228-2.4965-14.1817-8.8571-18.2857-16.1082-4.104-7.2511-6.3382-15.3767-8.5249-23.4229-1.9015-6.9807-6.9245-12.5304-8.0812-19.686-1.1884-7.108-.4912-14.8202,3.3592-20.9264Z"/>
      <path class="cls-1" d="m94.5204,116.0069c1.2835.0636,2.3768,1.0495,2.3768,2.3852v6.0903c0,1.24-1.0933,2.449-2.3768,2.385-1.2835-.063-2.3768-1.049-2.3768-2.385v-6.0903c0-1.2403,1.0933-2.4488,2.3768-2.3852Z"/>
      <path class="cls-1" d="m176.8064,56.0742v24.7586c0,3.069-4.754,3.069-4.754,0v-24.7586c0-3.069,4.754-3.069,4.754,0Z"/>
      <path class="cls-1" d="m132.5974,93.2678c1.331.0636,2.3293,1.0495,2.3768,2.3852.0634,1.6856.1268,3.387.1902,5.0726.0158.6042-.2852,1.2721-.6972,1.6855-.412.4135-1.0934.7315-1.6796.6997-1.3311-.0636-2.3293-1.0495-2.3769-2.3852-.0634-1.6856-.1267-3.387-.1901-5.0726-.0159-.6042.2852-1.2721.6972-1.6855.412-.4135,1.0933-.7315,1.6796-.6997Z"/>
      <path class="cls-1" d="m160.6754,68.7159c1.284.0636,2.377,1.0495,2.377,2.3852v13.5958c0,1.2403-1.093,2.4488-2.377,2.3852-1.283-.0636-2.377-1.0495-2.377-2.3852v-13.5958c0-1.2403,1.094-2.4488,2.377-2.3852Z"/>
      <path class="cls-1" d="m67.6149,107.8812c1.2835.0636,2.3768,1.0495,2.3768,2.3852v10.352c0,1.24-1.0933,2.449-2.3768,2.385-1.2835-.064-2.3768-1.049-2.3768-2.385v-10.352c0-1.2403,1.0933-2.4488,2.3768-2.3852Z"/>
    </g>
  </g>
</svg>