<?xml version="1.0" encoding="UTF-8"?>
<svg id="Capa_1" data-name="Capa 1" xmlns="http://www.w3.org/2000/svg" xmlns:xlink="http://www.w3.org/1999/xlink" viewBox="0 0 197.28 125.3645">
  <defs>
    <style>
      .cls-1 {
        fill: #2e2e2e;
      }

      .cls-1, .cls-2 {
        stroke-width: 0px;
      }

      .cls-2 {
        fill: none;
      }

      .cls-3 {
        clip-path: url(#clippath);
      }
    </style>
    <clipPath id="clippath">
      <rect class="cls-2" x="1.5094" y="12.664" width="185.81" height="101.522" transform="translate(-18.0092 46.1697) rotate(-25.1662)"/>
    </clipPath>
  </defs>
  <g class="cls-3">
    <path class="cls-1" d="m38.8193,34.2244c-7.257.578-12.814,8.5643-10.672,15.5783,2.352,7.7125,12.446,10.465,18.789,5.9924,1.453-1.0218-.115-3.1678-1.634-2.539-11.34,4.7349-23.322,9.8387-31.056,19.8314-6.203,7.9843-9.084,18.8508-4.626,28.338,4.196,8.9316,13.511,14.8986,23.124,16.2662,11.515,1.6268,23.121-3.2664,32.025-10.2647,11.22-8.816,18.687-21.3624,25.882-33.4418l-2.413.1333c4.855,6.7233,14.912,9.0011,22.082,4.6998,7.17-4.3013,10.027-14.4612,6.181-22.0317-.891-1.7519-3.495-.511-2.75,1.2922,7.775,19.0015,28.096,33.9223,49.169,28.4982,9.362-2.4147,18.076-8.4084,22.64-17.0642,5.133-9.7199,4.173-21.2913-.271-31.0733-5.818-12.816-17.184-21.9226-28.621-29.5549-1.629-1.0834-3.372,1.4143-1.723,2.505,9.519,6.3291,19.022,13.5983,25.055,23.5154,5.3,8.7182,7.968,19.7752,4.452,29.6512-3.066,8.5964-10.491,14.9168-18.895,18.0345-9.041,3.3493-18.933,2.4692-27.492-1.8522-9.841-4.957-17.403-13.8335-21.536-23.965l-2.75,1.2922c3.151,6.201,1.041,14.7384-5.183,18.2389-6.223,3.5005-14.045,1.3254-18.009-4.1884-.551-.7755-1.9399-.6653-2.413.1333-10.982,18.4543-25.003,40.9811-48.873,42.6158-9.545.6526-19.351-3.5071-24.953-11.3883-5.602-7.8811-4.428-18.5559.924-26.5815,7.219-10.8361,19.773-16.0563,31.343-20.8818l-1.634-2.539c-4.75,3.3511-12.755.787-14.053-5.0804-1.168-5.3013,3.139-10.7504,8.436-11.1703,1.96-.1581,1.416-3.1579-.51-2.999l-.035-.0008Z"/>
  </g>
</svg>