<?xml version="1.0" encoding="UTF-8"?>
<svg id="Capa_1" data-name="Capa 1" xmlns="http://www.w3.org/2000/svg" xmlns:xlink="http://www.w3.org/1999/xlink" viewBox="0 0 97.8637 77.4">
  <defs>
    <style>
      .cls-1 {
        fill: none;
      }

      .cls-1, .cls-2 {
        stroke-width: 0px;
      }

      .cls-3 {
        clip-path: url(#clippath);
      }

      .cls-2 {
        fill: #2c80c0;
      }
    </style>
    <clipPath id="clippath">
      <rect class="cls-1" x="6.5637" y="18.8556" width="91.53" height="42.43" transform="translate(-13.1268 32.3559) rotate(-30.721)"/>
    </clipPath>
  </defs>
  <g class="cls-3">
    <g>
      <path class="cls-2" d="m11.26,47.9398c7.665,8.904,15.329,17.808,23.002,26.707.833.971,2.199-.469,1.371-1.431-7.664-8.904-15.337-17.803-23.001-26.707-.833-.971-2.199.469-1.372,1.431Z"/>
      <path class="cls-2" d="m20.078,38.7798c1.765,9.606,3.531,19.212,5.291,28.81.135.757,1.189.945,1.672.426,5.244-5.699,10.851-11.044,16.784-16.035.612-.515.164-1.447-.47-1.652l-5.446-1.765c-1.213-.396-1.696,1.531-.489,1.919l5.447,1.765-.47-1.652c-5.929,4.978-11.531,10.331-16.784,16.035l1.672.425c-1.765-9.606-3.531-19.212-5.291-28.81-.234-1.256-2.142-.728-1.912.52l-.004.014Z"/>
      <path class="cls-2" d="m36.88,33.4828c3.662,8.746,7.967,17.204,12.931,25.282.671,1.09,2.373.079,1.702-1.011-4.872-7.924-9.133-16.21-12.725-24.8-.484-1.166-2.41-.65-1.913.52l.005.009Z"/>
      <path class="cls-2" d="m55.31,53.5538c-3.818-7.385-7.651-14.774-11.47-22.16l-1.702,1.012c2.704,3.453,5.405,6.943,8.653,9.922,2.715,2.493,6.154,5.207,9.836,6.02,3.217.717,6.856-1.166,6.378-4.849-.258-1.999-1.593-3.66-2.782-5.21-1.189-1.55-2.515-3.077-3.922-4.486-3.252-3.279-6.996-6.056-11.044-8.268-1.121-.614-2.089,1.125-.959,1.733,3.778,2.071,7.25,4.625,10.322,7.662,1.604,1.583,3.085,3.273,4.428,5.081,1.082,1.451,3.121,4.02,1.385,5.738-1.514,1.504-3.949.636-5.571-.156-2.051-1.003-3.949-2.318-5.688-3.797-3.553-3.042-6.462-6.723-9.324-10.384-.771-.985-2.311-.151-1.702,1.011,3.819,7.386,7.652,14.775,11.471,22.16.593,1.136,2.29.116,1.702-1.011l-.011-.018Z"/>
      <path class="cls-2" d="m68.149,21.9158c-.789-2.777-2.071-5.365-3.876-7.619-1.258-1.568-3.084-3.135-5.254-2.636-2.448.559-3.559,2.976-4.075,5.201-.559,2.426-.734,4.95-.554,7.426.353,4.92,2.083,9.906,5.167,13.784,1.436,1.811,3.362,3.132,5.758,3.034,2.396-.097,4.779-1.374,6.668-2.834,4.582-3.525,7.046-9.166,6.606-14.918-.055-.758-.811-1.228-1.501-.841-3.983,2.204-7.96,4.416-11.952,6.625-1.121.62-.104,2.331,1.012,1.703,3.983-2.204,7.96-4.417,11.952-6.626l-1.501-.842c.321,4.102-.907,8.182-3.64,11.295-2.394,2.725-7.322,6.294-10.785,3.326-2.874-2.468-4.529-6.8-5.32-10.401-.791-3.602-.99-8.322.494-11.892.46-1.087,1.425-2.301,2.743-2.118.979.139,1.783.964,2.396,1.682,1.776,2.05,2.988,4.598,3.729,7.195.349,1.234,2.266.7,1.912-.52l.021-.024Z"/>
      <path class="cls-2" d="m80.355,13.6608c1.523-4.406-2.052-9.051-6.723-8.533-4.67.519-7.262,5.828-4.737,9.783,2.752,4.298,8.924,4.643,13.445,5.516,2.469.475,5.029,1.083,7.125,2.536,1.279.88,2.164,2.075,2.027,3.704-.13,1.485-.765,2.979-1.484,4.256-.719,1.276-1.693,2.495-2.812,3.509-.74.672-2.922,2.62-3.983,2.204-.817-.318-.694-1.717-.773-2.496-.087-.89-.183-1.775-.27-2.666-.184-1.856-.369-3.713-.553-5.569-.123-1.265-2.109-1.259-1.981.014.323,3.205.561,6.425.968,9.615.275,2.186,1.735,3.878,4.032,2.908,4.434-1.855,8.22-6.583,8.794-11.391.664-5.559-5.925-7.623-10.238-8.48-2.403-.48-4.851-.782-7.218-1.457-2.513-.705-5.702-2.079-6.034-5.045-.332-2.967,2.01-5.289,4.902-4.984,2.892.306,4.503,3.408,3.581,6.085-.419,1.214,1.504,1.688,1.918.488l.014.003Z"/>
      <path class="cls-2" d="m81.123,4.9698c-.346,1.729-.249,3.555.365,5.215.183.484.677.865,1.217.696.477-.156.886-.701.696-1.216-.134-.363-.251-.736-.323-1.111-.04-.186-.076-.363-.107-.553-.007-.031-.032-.191-.004-.045.029.146-.01-.017-.003-.044-.017-.107-.02-.21-.028-.321-.027-.379-.036-.746-.014-1.12.002-.094.018-.185.02-.28,0-.058.014-.113.015-.171.012-.135-.023.177-.011.041.035-.195.057-.394.1-.595.107-.505-.173-1.094-.715-1.203-.505-.107-1.095.174-1.203.715l-.005-.008Z"/>
      <path class="cls-2" d="m82.704,5.4378c.443,2.586,1.767,5.01,3.682,6.803.39.362,1.031.365,1.401-.03.371-.395.365-1.031-.03-1.401-1.679-1.573-2.756-3.62-3.141-5.892-.092-.527-.737-.83-1.216-.697-.558.157-.788.69-.696,1.217Z"/>
      <path class="cls-2" d="m11.374,56.6658c1,.43,1.991.865,2.991,1.294.25.108.478.158.742.094.242-.062.493-.246.602-.474.109-.228.171-.497.094-.742-.076-.246-.238-.499-.474-.602-.999-.43-1.991-.865-2.99-1.294-.25-.108-.478-.158-.743-.094-.242.062-.493.246-.602.474s-.17.497-.094.742c.076.246.238.499.474.602Z"/>
      <path class="cls-2" d="m10.662,59.2648c2.299.972,4.35,2.545,5.8,4.533.314.431.867.637,1.357.346.429-.256.659-.927.345-1.357-1.678-2.295-3.915-4.141-6.543-5.255-.495-.206-1.071-.12-1.353.385-.242.435-.114,1.138.385,1.353l.009-.005Z"/>
    </g>
  </g>
</svg>