<?xml version="1.0" encoding="UTF-8"?>
<svg id="Capa_1" data-name="Capa 1" xmlns="http://www.w3.org/2000/svg" xmlns:xlink="http://www.w3.org/1999/xlink" viewBox="0 0 187.2 101.2447">
  <defs>
    <style>
      .cls-1 {
        fill: #ffc612;
      }

      .cls-1, .cls-2 {
        stroke-width: 0px;
      }

      .cls-2 {
        fill: none;
      }

      .cls-3 {
        clip-path: url(#clippath);
      }
    </style>
    <clipPath id="clippath">
      <rect class="cls-2" x="50.7088" y="-29.4473" width="86.8188" height="186.04" transform="translate(1.8502 129.8022) rotate(-69.7079)"/>
    </clipPath>
  </defs>
  <g class="cls-3">
    <g>
      <path class="cls-1" d="m8.736,63.4235C29.0259,48.7585,45.5359,29.4285,57.0459,7.3045l-.96-.355c-5.4401,22.262-6.14,45.525-1.8201,68.098.15.747.7201-.065.9-.345.38-.568.8-1.618.67-2.329-4.1801-21.812-3.72-44.394,1.5499-65.938.37-1.503-.2699-1.696-.96-.356-11.1799,21.465-27.48,40.105-47.13,54.313-.64.47-1.38,3.646-.5499,3.049l-.01-.018Z"/>
      <path class="cls-1" d="m71.0859,35.2315c-21.17,2.926-42.8301,1.407-63.41-4.412-.7999-.22-1.91,3.118-1.23,3.312,20.7,5.846,42.46,7.341,63.72,4.391.85-.109,1.65-3.395.92-3.291Z"/>
      <path class="cls-1" d="m65.126,20.4545c-6.4601,18.618-7.89,38.779-3.76,58.121.2699,1.212,1.5199-2.027,1.5599-2.374,2.4301-19.854,9.96-38.828,21.73-54.986.4301-.593.9301-1.582.86-2.345-.0499-.56-.25-.876-.7-.261-12.76,17.523-20.83,38.165-23.46,59.675l1.5599-2.374c-3.9-18.261-2.9199-37.431,3.2101-55.072.09-.252.61-1.714.1-1.844-.51-.129-1.02,1.191-1.12,1.469l.02-.009Z"/>
      <path class="cls-1" d="m88.236,25.4315c-12.7101,22.016-22.9301,45.369-30.5601,69.608-.11.35-.38,1.365.1901,1.38.5199.027,1-1.602,1.1-1.912,7.35-23.364,17.28-45.877,29.51-67.104.26-.461.99-1.804.6699-2.33-.3199-.525-.61-.177-.8999.345l-.01.013Z"/>
      <path class="cls-1" d="m87.7959,26.1715c-8.14,20.676-9.75,43.723-4.1699,65.303.2599.984,1.7699-1.876,1.5699-2.674-5.3199-20.564-4.1801-42.519,3.6-62.258.09-.252.61-1.719.11-1.844-.5299-.134-1.01,1.195-1.12,1.469l.01.004Z"/>
      <path class="cls-1" d="m92.8059,53.6525c-11.17,1.85-22.53,2.016-33.75.501-.9299-.131-1.8099,3.233-1.23,3.312,11.3199,1.536,22.8099,1.357,34.0599-.508.8501-.136,1.62-3.406.91-3.292l.01-.013Z"/>
      <path class="cls-1" d="m110.4459,32.5905c-9.5699,17.393-14.89,36.958-15.23,56.829-.01.72.27.658.71.262.51-.474.86-1.67.86-2.345.3301-18.432,5.02-36.588,13.91-52.756.27-.46.99-1.804.67-2.329-.3201-.526-.6101-.196-.9.344l-.02-.005Z"/>
      <path class="cls-1" d="m79.6759,24.1465l-1.1899-8.238-1.39,2.992c20.35,11.246,42.5399,18.954,65.49,22.74l.88-3.18c-3.92,4.242-7.8301,8.472-11.75,12.715-.53.572-.92,1.421-1.01,2.201-.03.245-.08,1.433.46.847,3.92-4.242,7.8301-8.472,11.75-12.714.26-.282,1.72-3.04.89-3.181-22.9399-3.786-45.14-11.494-65.49-22.739-.72-.401-1.45,2.579-1.39,2.993l1.1801,8.238c.11.764.75-.086.8999-.344.39-.595.76-1.602.67-2.33Z"/>
      <path class="cls-1" d="m112.6759,84.2815c6.29-15.354,11.5701-31.093,15.85-47.116l-1.4399,1.305c-1.4,16.213-2.64,34.653,8.61,48.043.45.544,2.02-2.416,1.45-3.094-11.0599-13.168-9.87-31.07-8.49-47.032.14-1.65-1.3199.866-1.4399,1.305-4.1901,15.736-9.38,31.164-15.5601,46.228-.09.251-.6,1.718-.1,1.843.52.135,1-1.195,1.12-1.468v-.014Z"/>
      <path class="cls-1" d="m143.0559,63.1235c-14.78-.117-29.52-1.129-44.1799-2.995-.9301-.117-1.79,3.238-1.2301,3.311,14.66,1.867,29.41,2.865,44.1901,2.996.99.008,1.6699-3.31,1.22-3.312Z"/>
      <path class="cls-1" d="m153.1559,45.7455c-7.2799,16.147-11.47,33.587-12.1599,51.309-.03.728.2899.65.7.261.52-.469.84-1.661.87-2.344.65-16.565,4.42-32.879,11.22-47.997.17-.361.8301-1.832.41-2.168-.4401-.36-.89.617-1.04.925v.014Z"/>
      <path class="cls-1" d="m144.116,45.0705c6.1499,1.25,12.09,3.414,17.5699,6.511,4.6801,2.648,11.3101,6.424,12.33,12.206.3201,1.76-.0399,3.134-1.62,4.162-.98.632-2.1599.994-3.2999,1.218-2.85.559-5.88.432-8.77.404-6.34-.059-12.6801-.533-18.97-1.386-.8-.112-1.9301,2.916-1.23,3.312,13.6899,7.683,27.3999,15.371,41.09,23.053.5399.305,2.02-2.868,1.23-3.311-13.7-7.683-27.4-15.371-41.09-23.054l-1.23,3.312c5.95.801,11.95,1.272,17.97,1.373,4.34.069,10.27.758,13.97-2.03,3.28-2.463,4.36-7.425,3.12-11.212-1.6-4.898-6.9301-8.177-11.13-10.68-5.79-3.451-12.13-5.84-18.73-7.182-.86-.168-1.86,3.183-1.22,3.312l.01-.008Z"/>
    </g>
  </g>
</svg>