<?xml version="1.0" encoding="UTF-8"?>
<svg id="Capa_1" data-name="Capa 1" xmlns="http://www.w3.org/2000/svg" xmlns:xlink="http://www.w3.org/1999/xlink" viewBox="0 0 231.36 246.5533">
  <defs>
    <style>
      .cls-1 {
        fill: none;
      }

      .cls-1, .cls-2, .cls-3 {
        stroke-width: 0px;
      }

      .cls-2 {
        fill: #d32924;
      }

      .cls-4 {
        clip-path: url(#clippath);
      }

      .cls-3 {
        fill: #a00000;
      }
    </style>
    <clipPath id="clippath">
      <rect class="cls-1" x="3.7266" y="9.1638" width="228" height="238" transform="translate(-24.4258 27.7735) rotate(-12.2002)"/>
    </clipPath>
  </defs>
  <g class="cls-4">
    <g>
      <path class="cls-3" d="m218.3733,76.6249c-8.6599-8.379-20.87-8.203-31.1699-5.155-18.17,5.388-34.17,18.4969-44.51,36.438,5.27-15.295,10.61-30.986,10.8999-47.868.3-16.882-5.5299-35.4691-17.99-45.088-6.97-5.387-15.4199-7.483-23.4399-6.971-19.48,1.257-36.41,18.762-39.76,41.139-3.36,22.378,7.11,47.805,24.61,59.762-6.87-3.949-15.73-2.344-20,4.454-4.27,6.796-2.66,18.268,3.8,23.2-15.13-2.2-30.8201-4.335-44.87,1.093-14.03,5.442-25.9701,20.736-24.2201,38.508,1.16,11.788,7.9601,22.338,15.79,30.404,14.88,15.353,34.4501,24.09,53.51,23.911l.04,7.47c17.8099,2.35,35.64,5.701,53.4,5.709,17.7699.0081,35.74-3.55,50.4199-14.112,14.6901-10.563,25.65-28.948,26.02-49.7859.1899-10.64-4.2-21.911-9.12-31.3,9.13-9.033,18.52-18.487,23.22-31.525,4.7101-13.02,3.27-30.677-6.63-40.266v-.017Z"/>
      <path class="cls-2" d="m203.7232,90.5179c-4.13-5.018-10.7999-4.671-16.2899-3.21-19.77,5.278-36.9601,20.287-46.6801,40.794.72-4.151-.4199-8.849-2.96-12.167-2.53-3.319-6.4401-5.338-10.0601-4.992,2.8501-17.691,5.6901-35.379,8.55-53.052,1-6.199,2-12.582,1.05-18.961-.9501-6.38-4.3-12.897-9.4901-15.332-4.4399-2.086-9.2899-.892-13.6.844-8.96,3.597-17.26,9.55-23.09,18.126-5.84,8.576-9.05,19.942-7.76,31.318,1.22,10.627,6.3101,20.762,13.41,27.984,7.09,7.221,15.5399,12.637,24.59,14.072-4.05,2.245-6.63,7.473-6.4,12.894.24,5.42,3.3,10.779,7.55,13.253-4.51-1.2859-9.17-2.578-13.61-1.709-4.4401.87-8.66,4.481-9.22,9.763-.5601,5.376,2.7699,10.693,6.6499,14.068-17.24-7.727-36.0499-9.571-53.3999-5.255-4.8101,1.205-9.5701,2.891-13.7201,5.831s-7.6599,7.239-9.3099,12.63c-2.9601,9.595.62,21.373,7.24,28.897,6.64,7.538,15.7999,11.268,24.7,12.28,8.23.939,16.38-.222,24.4601-1.549,1.5399,1.216,3.38,1.859,5.1499,1.64,3.2001-.417,5.8201-3.612,6.0601-7.384,13.12,15.787,34.15,19.705,50.86,12.936,9.51-3.863,18.0601-10.983,23.26-20.971,5.1899-10.005,6.75-23.002,3.13-34.625-3.61-11.623-12.67-21.429-22.9301-23.442,18.3401-3.254,35.3301-13.494,47.8401-28.876,2.7899-3.431,5.3999-7.225,6.5399-11.85,1.15-4.624.52-10.254-2.5-13.923l-.02-.032Z"/>
      <path class="cls-3" d="m39.8632,122.4789c-2.36-.893-4.6599-2.219-6.5299-4.205-1.87-1.986-3.29-4.67-3.6001-7.522-.47-4.294,1.7101-8.414,4.92-10.219,3.2-1.805,7.1801-1.463,10.61.331,3.4301,1.794,6.33,4.926,8.61,8.464,1.79,2.786,3.26,5.825,4.5901,8.931.6699,1.551.98,1.866-.0601,2.857-.86.825-2.39,1.229-3.47,1.609-4.77,1.705-10.11,1.675-15.0601-.228l-.01-.018Z"/>
      <path class="cls-3" d="m57.9633,108.1319c.46,1.324,1.1399,2.765,2.2999,3.133,1.36.435,2.58-.885,3.28-2.24,1.27-2.447,1.91-5.375,1.79-8.34-.0601-1.375-.27-2.771-.8101-4.021-.53-1.253-1.4301-2.372-2.53-2.882-2.2-1.021-5.6599.202-5.9,3.118-.3099,3.477.75,7.954,1.88,11.249l-.0099-.017Z"/>
      <path class="cls-3" d="m166.9932,29.6549c-2.02,1.331-4.0599,2.682-5.76,4.508-1.6899,1.827-3.0499,4.199-3.38,6.953-.34,2.737.4801,5.86,2.41,7.687,1.48,1.413,3.42,1.905,5.26,2.146,5.96.772,11.98-.73,16.9301-4.19,2.5199-1.747,4.83-4.126,5.8099-7.384,1.14-3.823.12-8.601-2.5-11.609-2.65-3.057-5.88-3.397-9.24-3.292-3.46.11-6.6801,3.323-9.54,5.219l.01-.038Z"/>
      <path class="cls-3" d="m152.9233,20.4559c-.03,1.959.16,4.107,1.2999,5.648,1.27,1.713,3.4801,2.166,5.16,1.401,1.7001-.769,2.89-2.575,3.51-4.571.62-2.013.72-4.224.6901-6.406-.01-1.895-.12-3.84-.8201-5.586-.71-1.764-2.13-3.279-3.74-3.424-5.15-.436-6.01,8.687-6.1,12.956v-.018Z"/>
    </g>
  </g>
</svg>