<?xml version="1.0" encoding="UTF-8"?>
<svg id="Capa_1" data-name="Capa 1" xmlns="http://www.w3.org/2000/svg" xmlns:xlink="http://www.w3.org/1999/xlink" viewBox="0 0 835.34 960.5">
  <defs>
    <style>
      .cls-1, .cls-2 {
        stroke: #fff;
      }

      .cls-1, .cls-2, .cls-3, .cls-4 {
        fill: none;
      }

      .cls-1, .cls-2, .cls-4 {
        stroke-miterlimit: 10;
      }

      .cls-5 {
        clip-path: url(#clippath-2);
      }

      .cls-2 {
        stroke-width: 5px;
      }

      .cls-3, .cls-6, .cls-7 {
        stroke-width: 0px;
      }

      .cls-8 {
        clip-path: url(#clippath-1);
      }

      .cls-9 {
        clip-path: url(#clippath-4);
      }

      .cls-6, .cls-7 {
        fill: #fff;
      }

      .cls-7 {
        fill-rule: evenodd;
      }

      .cls-10 {
        clip-path: url(#clippath);
      }

      .cls-11 {
        clip-path: url(#clippath-3);
      }

      .cls-12 {
        mask: url(#mask);
      }

      .cls-4 {
        stroke: #000;
        stroke-width: .5px;
      }
    </style>
    <clipPath id="clippath">
      <rect class="cls-3" y="128.65" width="835.34" height="758.15"/>
    </clipPath>
    <clipPath id="clippath-1">
      <rect class="cls-3" x="713.56" width="70.33" height="660.38"/>
    </clipPath>
    <mask id="mask" x="714.43" y=".91" width="68.57" height="442.73" maskUnits="userSpaceOnUse">
      <g id="mask0_0_1" data-name="mask0 0 1">
        <path class="cls-6" d="m725.8,49.27v329.61h45.84V49.27h-45.84Z"/>
      </g>
    </mask>
    <clipPath id="clippath-2">
      <rect class="cls-3" x="720.42" y="423.67" width="58.32" height="58.32"/>
    </clipPath>
    <clipPath id="clippath-3">
      <rect class="cls-3" x="22.56" y="875.22" width="77.3" height="77.3" transform="translate(-212.41 39.78) rotate(-13.55)"/>
    </clipPath>
    <clipPath id="clippath-4">
      <rect class="cls-3" x="55.94" y="757.26" width="57.84" height="57.84" transform="translate(-181.83 41.77) rotate(-13.55)"/>
    </clipPath>
  </defs>
  <g class="cls-10">
    <g>
      <path class="cls-4" d="m817.88,137.4h17.46"/>
      <path class="cls-4" d="m826.59,128.65v17.53"/>
      <path class="cls-4" d="m749.73,137.4h17.46"/>
      <path class="cls-4" d="m758.45,128.65v17.53"/>
      <path class="cls-4" d="m681.56,137.4h17.46"/>
      <path class="cls-4" d="m690.3,128.65v17.53"/>
      <path class="cls-4" d="m613.41,137.4h17.46"/>
      <path class="cls-4" d="m622.13,128.65v17.53"/>
      <path class="cls-4" d="m545.24,137.4h17.46"/>
      <path class="cls-4" d="m553.99,128.65v17.53"/>
      <path class="cls-4" d="m477.1,137.4h17.46"/>
      <path class="cls-4" d="m485.82,128.65v17.53"/>
      <path class="cls-4" d="m408.95,137.4h17.46"/>
      <path class="cls-4" d="m417.67,128.65v17.53"/>
      <path class="cls-4" d="m340.78,137.4h17.46"/>
      <path class="cls-4" d="m349.52,128.65v17.53"/>
      <path class="cls-4" d="m272.63,137.4h17.46"/>
      <path class="cls-4" d="m281.35,128.65v17.53"/>
      <path class="cls-4" d="m204.46,137.4h17.46"/>
      <path class="cls-4" d="m213.21,128.65v17.53"/>
      <path class="cls-4" d="m136.32,137.4h17.46"/>
      <path class="cls-4" d="m145.04,128.65v17.53"/>
      <path class="cls-4" d="m68.15,137.4h17.49"/>
      <path class="cls-4" d="m76.89,128.65v17.53"/>
      <path class="cls-4" d="m0,137.4h17.46"/>
      <path class="cls-4" d="m8.75,128.65v17.53"/>
      <path class="cls-4" d="m817.88,204.74h17.46"/>
      <path class="cls-4" d="m826.59,195.99v17.53"/>
      <path class="cls-4" d="m749.7,204.74h17.49"/>
      <path class="cls-4" d="m758.45,195.99v17.53"/>
      <path class="cls-4" d="m681.56,204.74h17.46"/>
      <path class="cls-4" d="m690.3,195.99v17.53"/>
      <path class="cls-4" d="m613.41,204.74h17.46"/>
      <path class="cls-4" d="m622.13,195.99v17.53"/>
      <path class="cls-4" d="m545.24,204.74h17.46"/>
      <path class="cls-4" d="m553.99,195.99v17.53"/>
      <path class="cls-4" d="m477.1,204.74h17.46"/>
      <path class="cls-4" d="m485.82,195.99v17.53"/>
      <path class="cls-4" d="m408.95,204.74h17.46"/>
      <path class="cls-4" d="m417.67,195.99v17.53"/>
      <path class="cls-4" d="m340.78,204.74h17.46"/>
      <path class="cls-4" d="m349.52,195.99v17.53"/>
      <path class="cls-4" d="m272.63,204.74h17.46"/>
      <path class="cls-4" d="m281.35,195.99v17.53"/>
      <path class="cls-4" d="m204.46,204.74h17.46"/>
      <path class="cls-4" d="m213.21,195.99v17.53"/>
      <path class="cls-4" d="m136.32,204.74h17.46"/>
      <path class="cls-4" d="m145.04,195.99v17.53"/>
      <path class="cls-4" d="m68.15,204.74h17.49"/>
      <path class="cls-4" d="m76.89,195.99v17.53"/>
      <path class="cls-4" d="m0,204.74h17.46"/>
      <path class="cls-4" d="m8.75,195.99v17.53"/>
      <path class="cls-4" d="m817.88,272.08h17.46"/>
      <path class="cls-4" d="m826.59,263.3v17.53"/>
      <path class="cls-4" d="m749.73,272.08h17.46"/>
      <path class="cls-4" d="m758.45,263.3v17.53"/>
      <path class="cls-4" d="m681.56,272.08h17.46"/>
      <path class="cls-4" d="m690.3,263.3v17.53"/>
      <path class="cls-4" d="m613.41,272.08h17.46"/>
      <path class="cls-4" d="m622.13,263.3v17.53"/>
      <path class="cls-4" d="m545.24,272.08h17.46"/>
      <path class="cls-4" d="m553.99,263.3v17.53"/>
      <path class="cls-4" d="m477.1,272.08h17.46"/>
      <path class="cls-4" d="m485.82,263.3v17.53"/>
      <path class="cls-4" d="m408.95,272.08h17.46"/>
      <path class="cls-4" d="m417.67,263.3v17.53"/>
      <path class="cls-4" d="m340.78,272.08h17.46"/>
      <path class="cls-4" d="m349.52,263.3v17.53"/>
      <path class="cls-4" d="m272.63,272.08h17.46"/>
      <path class="cls-4" d="m281.35,263.3v17.53"/>
      <path class="cls-4" d="m204.46,272.08h17.46"/>
      <path class="cls-4" d="m213.21,263.3v17.53"/>
      <path class="cls-4" d="m136.32,272.08h17.46"/>
      <path class="cls-4" d="m145.04,263.3v17.53"/>
      <path class="cls-4" d="m68.15,272.08h17.49"/>
      <path class="cls-4" d="m76.89,263.3v17.53"/>
      <path class="cls-4" d="m0,272.08h17.46"/>
      <path class="cls-4" d="m8.75,263.3v17.53"/>
      <path class="cls-4" d="m817.88,339.4h17.46"/>
      <path class="cls-4" d="m826.59,330.64v17.53"/>
      <path class="cls-4" d="m749.73,339.4h17.46"/>
      <path class="cls-4" d="m758.45,330.64v17.53"/>
      <path class="cls-4" d="m681.56,339.4h17.46"/>
      <path class="cls-4" d="m690.3,330.64v17.53"/>
      <path class="cls-4" d="m613.41,339.4h17.46"/>
      <path class="cls-4" d="m622.13,330.64v17.53"/>
      <path class="cls-4" d="m545.24,339.4h17.46"/>
      <path class="cls-4" d="m553.99,330.64v17.53"/>
      <path class="cls-4" d="m477.1,339.4h17.46"/>
      <path class="cls-4" d="m485.82,330.64v17.53"/>
      <path class="cls-4" d="m408.95,339.4h17.46"/>
      <path class="cls-4" d="m417.67,330.64v17.53"/>
      <path class="cls-4" d="m340.78,339.4h17.46"/>
      <path class="cls-4" d="m349.52,330.64v17.53"/>
      <path class="cls-4" d="m272.63,339.4h17.46"/>
      <path class="cls-4" d="m281.35,330.64v17.53"/>
      <path class="cls-4" d="m204.46,339.4h17.46"/>
      <path class="cls-4" d="m213.21,330.64v17.53"/>
      <path class="cls-4" d="m136.32,339.4h17.46"/>
      <path class="cls-4" d="m145.04,330.64v17.53"/>
      <path class="cls-4" d="m68.15,339.4h17.49"/>
      <path class="cls-4" d="m76.89,330.64v17.53"/>
      <path class="cls-4" d="m0,339.4h17.46"/>
      <path class="cls-4" d="m8.75,330.64v17.53"/>
      <path class="cls-4" d="m817.88,406.74h17.46"/>
      <path class="cls-4" d="m826.59,397.96v17.53"/>
      <path class="cls-4" d="m749.73,406.74h17.46"/>
      <path class="cls-4" d="m758.45,397.96v17.53"/>
      <path class="cls-4" d="m681.56,406.74h17.46"/>
      <path class="cls-4" d="m690.3,397.96v17.53"/>
      <path class="cls-4" d="m613.41,406.74h17.46"/>
      <path class="cls-4" d="m622.13,397.96v17.53"/>
      <path class="cls-4" d="m545.24,406.74h17.46"/>
      <path class="cls-4" d="m553.99,397.96v17.53"/>
      <path class="cls-4" d="m477.1,406.74h17.46"/>
      <path class="cls-4" d="m485.82,397.96v17.53"/>
      <path class="cls-4" d="m408.95,406.74h17.46"/>
      <path class="cls-4" d="m417.67,397.96v17.53"/>
      <path class="cls-4" d="m340.78,406.74h17.46"/>
      <path class="cls-4" d="m349.52,397.96v17.53"/>
      <path class="cls-4" d="m272.63,406.74h17.46"/>
      <path class="cls-4" d="m281.35,397.96v17.53"/>
      <path class="cls-4" d="m204.46,406.74h17.46"/>
      <path class="cls-4" d="m213.21,397.96v17.53"/>
      <path class="cls-4" d="m136.32,406.74h17.46"/>
      <path class="cls-4" d="m145.04,397.96v17.53"/>
      <path class="cls-4" d="m68.15,406.74h17.49"/>
      <path class="cls-4" d="m76.89,397.96v17.53"/>
      <path class="cls-4" d="m0,406.74h17.46"/>
      <path class="cls-4" d="m8.75,397.96v17.53"/>
      <path class="cls-4" d="m817.88,474.05h17.46"/>
      <path class="cls-4" d="m826.59,465.3v17.53"/>
      <path class="cls-4" d="m749.73,474.05h17.46"/>
      <path class="cls-4" d="m758.45,465.3v17.53"/>
      <path class="cls-4" d="m681.56,474.05h17.46"/>
      <path class="cls-4" d="m690.3,465.3v17.53"/>
      <path class="cls-4" d="m613.41,474.05h17.46"/>
      <path class="cls-4" d="m622.13,465.3v17.53"/>
      <path class="cls-4" d="m545.24,474.05h17.46"/>
      <path class="cls-4" d="m553.99,465.3v17.53"/>
      <path class="cls-4" d="m477.1,474.05h17.46"/>
      <path class="cls-4" d="m485.82,465.3v17.53"/>
      <path class="cls-4" d="m408.95,474.05h17.46"/>
      <path class="cls-4" d="m417.67,465.3v17.53"/>
      <path class="cls-4" d="m340.78,474.05h17.46"/>
      <path class="cls-4" d="m349.52,465.3v17.53"/>
      <path class="cls-4" d="m272.63,474.05h17.46"/>
      <path class="cls-4" d="m281.35,465.3v17.53"/>
      <path class="cls-4" d="m204.46,474.05h17.46"/>
      <path class="cls-4" d="m213.21,465.3v17.53"/>
      <path class="cls-4" d="m136.32,474.05h17.46"/>
      <path class="cls-4" d="m145.04,465.3v17.53"/>
      <path class="cls-4" d="m68.15,474.05h17.49"/>
      <path class="cls-4" d="m76.89,465.3v17.53"/>
      <path class="cls-4" d="m0,474.05h17.46"/>
      <path class="cls-4" d="m8.75,465.3v17.53"/>
      <path class="cls-4" d="m817.88,541.39h17.46"/>
      <path class="cls-4" d="m826.59,532.61v17.53"/>
      <path class="cls-4" d="m749.73,541.39h17.46"/>
      <path class="cls-4" d="m758.45,532.61v17.53"/>
      <path class="cls-4" d="m681.56,541.39h17.46"/>
      <path class="cls-4" d="m690.3,532.61v17.53"/>
      <path class="cls-4" d="m613.41,541.39h17.46"/>
      <path class="cls-4" d="m622.13,532.61v17.53"/>
      <path class="cls-4" d="m545.24,541.39h17.46"/>
      <path class="cls-4" d="m553.99,532.61v17.53"/>
      <path class="cls-4" d="m477.1,541.39h17.46"/>
      <path class="cls-4" d="m485.82,532.61v17.53"/>
      <path class="cls-4" d="m408.95,541.39h17.46"/>
      <path class="cls-4" d="m417.67,532.61v17.53"/>
      <path class="cls-4" d="m340.78,541.39h17.46"/>
      <path class="cls-4" d="m349.52,532.61v17.53"/>
      <path class="cls-4" d="m272.63,541.39h17.46"/>
      <path class="cls-4" d="m281.35,532.61v17.53"/>
      <path class="cls-4" d="m204.46,541.39h17.46"/>
      <path class="cls-4" d="m213.21,532.61v17.53"/>
      <path class="cls-4" d="m136.32,541.39h17.46"/>
      <path class="cls-4" d="m145.04,532.61v17.53"/>
      <path class="cls-4" d="m68.15,541.39h17.49"/>
      <path class="cls-4" d="m76.89,532.61v17.53"/>
      <path class="cls-4" d="m0,541.39h17.46"/>
      <path class="cls-4" d="m8.75,532.61v17.53"/>
      <path class="cls-4" d="m817.88,608.71h17.46"/>
      <path class="cls-4" d="m826.59,599.96v17.53"/>
      <path class="cls-4" d="m749.73,608.71h17.46"/>
      <path class="cls-4" d="m758.45,599.96v17.53"/>
      <path class="cls-4" d="m681.56,608.71h17.46"/>
      <path class="cls-4" d="m690.3,599.96v17.53"/>
      <path class="cls-4" d="m613.41,608.71h17.46"/>
      <path class="cls-4" d="m622.13,599.96v17.53"/>
      <path class="cls-4" d="m545.24,608.71h17.46"/>
      <path class="cls-4" d="m553.99,599.96v17.53"/>
      <path class="cls-4" d="m477.1,608.71h17.46"/>
      <path class="cls-4" d="m485.82,599.96v17.53"/>
      <path class="cls-4" d="m408.95,608.71h17.46"/>
      <path class="cls-4" d="m417.67,599.96v17.53"/>
      <path class="cls-4" d="m340.78,608.71h17.46"/>
      <path class="cls-4" d="m349.52,599.96v17.53"/>
      <path class="cls-4" d="m272.63,608.71h17.46"/>
      <path class="cls-4" d="m281.35,599.96v17.53"/>
      <path class="cls-4" d="m204.46,608.71h17.46"/>
      <path class="cls-4" d="m213.21,599.96v17.53"/>
      <path class="cls-4" d="m136.32,608.71h17.46"/>
      <path class="cls-4" d="m145.04,599.96v17.53"/>
      <path class="cls-4" d="m68.15,608.71h17.49"/>
      <path class="cls-4" d="m76.89,599.96v17.53"/>
      <path class="cls-4" d="m0,608.71h17.46"/>
      <path class="cls-4" d="m8.75,599.96v17.53"/>
      <path class="cls-4" d="m817.88,676.05h17.46"/>
      <path class="cls-4" d="m826.59,667.27v17.53"/>
      <path class="cls-4" d="m749.73,676.05h17.46"/>
      <path class="cls-4" d="m758.45,667.27v17.53"/>
      <path class="cls-4" d="m681.56,676.05h17.46"/>
      <path class="cls-4" d="m690.3,667.27v17.53"/>
      <path class="cls-4" d="m613.41,676.05h17.46"/>
      <path class="cls-4" d="m622.13,667.27v17.53"/>
      <path class="cls-4" d="m545.24,676.05h17.46"/>
      <path class="cls-4" d="m553.99,667.27v17.53"/>
      <path class="cls-4" d="m477.1,676.05h17.46"/>
      <path class="cls-4" d="m485.82,667.27v17.53"/>
      <path class="cls-4" d="m408.95,676.05h17.46"/>
      <path class="cls-4" d="m417.67,667.27v17.53"/>
      <path class="cls-4" d="m340.78,676.05h17.46"/>
      <path class="cls-4" d="m349.52,667.27v17.53"/>
      <path class="cls-4" d="m272.63,676.05h17.46"/>
      <path class="cls-4" d="m281.35,667.27v17.53"/>
      <path class="cls-4" d="m204.46,676.05h17.46"/>
      <path class="cls-4" d="m213.21,667.27v17.53"/>
      <path class="cls-4" d="m136.32,676.05h17.46"/>
      <path class="cls-4" d="m145.04,667.27v17.53"/>
      <path class="cls-4" d="m68.15,676.05h17.49"/>
      <path class="cls-4" d="m76.89,667.27v17.53"/>
      <path class="cls-4" d="m0,676.05h17.46"/>
      <path class="cls-4" d="m8.75,667.27v17.53"/>
      <path class="cls-4" d="m817.88,743.36h17.46"/>
      <path class="cls-4" d="m826.59,734.61v17.53"/>
      <path class="cls-4" d="m749.73,743.36h17.46"/>
      <path class="cls-4" d="m758.45,734.61v17.53"/>
      <path class="cls-4" d="m681.56,743.36h17.46"/>
      <path class="cls-4" d="m690.3,734.61v17.53"/>
      <path class="cls-4" d="m613.41,743.36h17.46"/>
      <path class="cls-4" d="m622.13,734.61v17.53"/>
      <path class="cls-4" d="m545.24,743.36h17.46"/>
      <path class="cls-4" d="m553.99,734.61v17.53"/>
      <path class="cls-4" d="m477.1,743.36h17.46"/>
      <path class="cls-4" d="m485.82,734.61v17.53"/>
      <path class="cls-4" d="m408.95,743.36h17.46"/>
      <path class="cls-4" d="m417.67,734.61v17.53"/>
      <path class="cls-4" d="m340.78,743.36h17.46"/>
      <path class="cls-4" d="m349.52,734.61v17.53"/>
      <path class="cls-4" d="m272.63,743.36h17.46"/>
      <path class="cls-4" d="m281.35,734.61v17.53"/>
      <path class="cls-4" d="m204.46,743.36h17.46"/>
      <path class="cls-4" d="m213.21,734.61v17.53"/>
      <path class="cls-4" d="m136.32,743.36h17.46"/>
      <path class="cls-4" d="m145.04,734.61v17.53"/>
      <path class="cls-4" d="m68.15,743.36h17.49"/>
      <path class="cls-4" d="m76.89,734.61v17.53"/>
      <path class="cls-4" d="m0,743.36h17.46"/>
      <path class="cls-4" d="m8.75,734.61v17.53"/>
      <path class="cls-4" d="m817.88,810.71h17.46"/>
      <path class="cls-4" d="m826.59,801.93v17.53"/>
      <path class="cls-4" d="m749.73,810.71h17.46"/>
      <path class="cls-4" d="m758.45,801.93v17.53"/>
      <path class="cls-4" d="m681.56,810.71h17.46"/>
      <path class="cls-4" d="m690.3,801.93v17.53"/>
      <path class="cls-4" d="m613.41,810.71h17.46"/>
      <path class="cls-4" d="m622.13,801.93v17.53"/>
      <path class="cls-4" d="m545.24,810.71h17.46"/>
      <path class="cls-4" d="m553.99,801.93v17.53"/>
      <path class="cls-4" d="m477.1,810.71h17.46"/>
      <path class="cls-4" d="m485.82,801.93v17.53"/>
      <path class="cls-4" d="m408.95,810.71h17.46"/>
      <path class="cls-4" d="m417.67,801.93v17.53"/>
      <path class="cls-4" d="m340.78,810.71h17.46"/>
      <path class="cls-4" d="m349.52,801.93v17.53"/>
      <path class="cls-4" d="m272.63,810.71h17.46"/>
      <path class="cls-4" d="m281.35,801.93v17.53"/>
      <path class="cls-4" d="m204.46,810.71h17.46"/>
      <path class="cls-4" d="m213.21,801.93v17.53"/>
      <path class="cls-4" d="m136.32,810.71h17.46"/>
      <path class="cls-4" d="m145.04,801.93v17.53"/>
      <path class="cls-4" d="m68.15,810.71h17.49"/>
      <path class="cls-4" d="m76.89,801.93v17.53"/>
      <path class="cls-4" d="m0,810.71h17.46"/>
      <path class="cls-4" d="m8.75,801.93v17.53"/>
      <path class="cls-4" d="m817.88,878.02h17.46"/>
      <path class="cls-4" d="m826.59,869.27v17.53"/>
      <path class="cls-4" d="m749.73,878.02h17.46"/>
      <path class="cls-4" d="m758.45,869.27v17.53"/>
      <path class="cls-4" d="m681.56,878.02h17.46"/>
      <path class="cls-4" d="m690.3,869.27v17.53"/>
      <path class="cls-4" d="m613.41,878.02h17.46"/>
      <path class="cls-4" d="m622.13,869.27v17.53"/>
      <path class="cls-4" d="m545.24,878.02h17.46"/>
      <path class="cls-4" d="m553.99,869.27v17.53"/>
      <path class="cls-4" d="m477.1,878.02h17.46"/>
      <path class="cls-4" d="m485.82,869.27v17.53"/>
      <path class="cls-4" d="m408.95,878.02h17.46"/>
      <path class="cls-4" d="m417.67,869.27v17.53"/>
      <path class="cls-4" d="m340.78,878.02h17.46"/>
      <path class="cls-4" d="m349.52,869.27v17.53"/>
      <path class="cls-4" d="m272.63,878.02h17.46"/>
      <path class="cls-4" d="m281.35,869.27v17.53"/>
      <path class="cls-4" d="m204.46,878.02h17.46"/>
      <path class="cls-4" d="m213.21,869.27v17.53"/>
      <path class="cls-4" d="m136.32,878.02h17.46"/>
      <path class="cls-4" d="m145.04,869.27v17.53"/>
      <path class="cls-4" d="m68.15,878.02h17.49"/>
      <path class="cls-4" d="m76.89,869.27v17.53"/>
      <path class="cls-4" d="m0,878.02h17.46"/>
      <path class="cls-4" d="m8.75,869.27v17.53"/>
    </g>
  </g>
  <g class="cls-8">
    <g class="cls-12">
      <g>
        <path class="cls-1" d="m714.79,443.29l67.86-67.9"/>
        <path class="cls-1" d="m714.79,428.89l67.86-67.9"/>
        <path class="cls-1" d="m714.79,414.52l67.86-67.9"/>
        <path class="cls-1" d="m714.79,400.12l67.86-67.9"/>
        <path class="cls-1" d="m714.79,385.75l67.86-67.94"/>
        <path class="cls-1" d="m714.79,371.34l67.86-67.9"/>
        <path class="cls-1" d="m714.79,356.94l67.86-67.9"/>
        <path class="cls-1" d="m714.79,342.57l67.86-67.9"/>
        <path class="cls-1" d="m714.79,328.17l67.86-67.9"/>
        <path class="cls-1" d="m714.79,313.8l67.86-67.94"/>
        <path class="cls-1" d="m714.79,299.39l67.86-67.9"/>
        <path class="cls-1" d="m714.79,284.99l67.86-67.9"/>
        <path class="cls-1" d="m714.79,270.62l67.86-67.9"/>
        <path class="cls-1" d="m714.79,256.21l67.86-67.9"/>
        <path class="cls-1" d="m714.79,241.85l67.86-67.94"/>
        <path class="cls-1" d="m714.79,227.44l67.86-67.9"/>
        <path class="cls-1" d="m714.79,213.07l67.86-67.94"/>
        <path class="cls-1" d="m714.79,198.67l67.86-67.9"/>
        <path class="cls-1" d="m714.79,184.26l67.86-67.9"/>
        <path class="cls-1" d="m714.79,169.89l67.86-67.9"/>
        <path class="cls-1" d="m714.79,155.49l67.86-67.9"/>
        <path class="cls-1" d="m714.79,141.12l67.86-67.94"/>
        <path class="cls-1" d="m714.79,126.72l67.86-67.9"/>
        <path class="cls-1" d="m714.79,112.31l67.86-67.9"/>
        <path class="cls-1" d="m714.79,97.94l67.86-67.9"/>
        <path class="cls-1" d="m714.79,83.54l67.86-67.9"/>
        <path class="cls-1" d="m714.79,69.17L782.65,1.27"/>
      </g>
    </g>
  </g>
  <g class="cls-5">
    <path class="cls-2" d="m773.79,452.83c0,13.36-10.83,24.21-24.21,24.21s-24.21-10.85-24.21-24.21,10.83-24.21,24.21-24.21,24.21,10.85,24.21,24.21Z"/>
  </g>
  <g class="cls-11">
    <path class="cls-7" d="m93.52,882.96l-19.51-11.93-16.59,27.12-27.12-16.59-11.93,19.51,27.12,16.59-16.59,27.12,19.51,11.93,16.59-27.12,27.12,16.59,11.93-19.51-27.12-16.59,16.59-27.12Z"/>
  </g>
  <g class="cls-9">
    <path class="cls-7" d="m109.04,763.05l-14.6-8.93-12.41,20.3-20.29-12.41-8.93,14.6,20.29,12.41-12.41,20.3,14.6,8.93,12.41-20.3,20.29,12.41,8.93-14.6-20.29-12.41,12.41-20.3Z"/>
  </g>
</svg>