<?xml version="1.0" encoding="UTF-8"?>
<svg id="Capa_1" data-name="Capa 1" xmlns="http://www.w3.org/2000/svg" xmlns:xlink="http://www.w3.org/1999/xlink" viewBox="0 0 121.2 48.96">
  <defs>
    <style>
      .cls-1 {
        fill: none;
      }

      .cls-1, .cls-2 {
        stroke-width: 0px;
      }

      .cls-2 {
        fill: #fff;
      }

      .cls-3 {
        clip-path: url(#clippath);
      }
    </style>
    <clipPath id="clippath">
      <rect class="cls-1" x="6.323" y="-37.3015" width="108.43" height="77.28"/>
    </clipPath>
  </defs>
  <g class="cls-3">
    <g>
      <path class="cls-2" d="m11.233,8.5785c0,1.36-1.1,2.46-2.46,2.46s-2.46-1.1-2.46-2.46,1.1-2.46,2.46-2.46,2.46,1.1,2.46,2.46Z"/>
      <path class="cls-2" d="m28.493,8.5785c0,1.36-1.1,2.46-2.46,2.46s-2.46-1.1-2.46-2.46,1.1-2.46,2.46-2.46,2.46,1.1,2.46,2.46Z"/>
      <path class="cls-2" d="m45.743,8.5785c0,1.36-1.1,2.46-2.46,2.46s-2.46-1.1-2.46-2.46,1.1-2.46,2.46-2.46,2.46,1.1,2.46,2.46Z"/>
      <path class="cls-2" d="m62.993,8.5785c0,1.36-1.1,2.46-2.46,2.46s-2.46-1.1-2.46-2.46,1.1-2.46,2.46-2.46,2.46,1.1,2.46,2.46Z"/>
      <path class="cls-2" d="m80.243,8.5785c0,1.36-1.1,2.46-2.46,2.46s-2.46-1.1-2.46-2.46,1.1-2.46,2.46-2.46,2.46,1.1,2.46,2.46Z"/>
      <path class="cls-2" d="m97.503,8.5785c0,1.36-1.1,2.46-2.46,2.46s-2.46-1.1-2.46-2.46,1.1-2.46,2.46-2.46,2.46,1.1,2.46,2.46Z"/>
      <path class="cls-2" d="m114.753,8.5785c0,1.36-1.1,2.46-2.46,2.46s-2.46-1.1-2.46-2.46,1.1-2.46,2.46-2.46,2.46,1.1,2.46,2.46Z"/>
      <path class="cls-2" d="m8.783,25.5085c1.359,0,2.46-1.1014,2.46-2.46s-1.101-2.46-2.46-2.46-2.46,1.1014-2.46,2.46,1.101,2.46,2.46,2.46Z"/>
      <path class="cls-2" d="m26.033,25.5085c1.359,0,2.46-1.1014,2.46-2.46s-1.101-2.46-2.46-2.46-2.46,1.1014-2.46,2.46,1.101,2.46,2.46,2.46Z"/>
      <path class="cls-2" d="m43.283,25.5085c1.359,0,2.46-1.1014,2.46-2.46s-1.101-2.46-2.46-2.46-2.46,1.1014-2.46,2.46,1.101,2.46,2.46,2.46Z"/>
      <path class="cls-2" d="m60.543,25.5085c1.359,0,2.46-1.1014,2.46-2.46s-1.101-2.46-2.46-2.46-2.46,1.1014-2.46,2.46,1.101,2.46,2.46,2.46Z"/>
      <path class="cls-2" d="m77.793,25.5085c1.359,0,2.46-1.1014,2.46-2.46s-1.101-2.46-2.46-2.46-2.46,1.1014-2.46,2.46,1.101,2.46,2.46,2.46Z"/>
      <path class="cls-2" d="m95.043,25.5085c1.359,0,2.46-1.1014,2.46-2.46s-1.101-2.46-2.46-2.46-2.46,1.1014-2.46,2.46,1.101,2.46,2.46,2.46Z"/>
      <path class="cls-2" d="m112.293,25.5085c1.359,0,2.46-1.1014,2.46-2.46s-1.101-2.46-2.46-2.46-2.46,1.1014-2.46,2.46,1.101,2.46,2.46,2.46Z"/>
      <path class="cls-2" d="m8.783,39.9885c1.359,0,2.46-1.1014,2.46-2.46s-1.101-2.46-2.46-2.46-2.46,1.1014-2.46,2.46,1.101,2.46,2.46,2.46Z"/>
      <path class="cls-2" d="m26.033,39.9885c1.359,0,2.46-1.1014,2.46-2.46s-1.101-2.46-2.46-2.46-2.46,1.1014-2.46,2.46,1.101,2.46,2.46,2.46Z"/>
      <path class="cls-2" d="m43.283,39.9885c1.359,0,2.46-1.1014,2.46-2.46s-1.101-2.46-2.46-2.46-2.46,1.1014-2.46,2.46,1.101,2.46,2.46,2.46Z"/>
      <path class="cls-2" d="m60.543,39.9885c1.359,0,2.46-1.1014,2.46-2.46s-1.101-2.46-2.46-2.46-2.46,1.1014-2.46,2.46,1.101,2.46,2.46,2.46Z"/>
      <path class="cls-2" d="m77.793,39.9885c1.359,0,2.46-1.1014,2.46-2.46s-1.101-2.46-2.46-2.46-2.46,1.1014-2.46,2.46,1.101,2.46,2.46,2.46Z"/>
      <path class="cls-2" d="m95.043,39.9885c1.359,0,2.46-1.1014,2.46-2.46s-1.101-2.46-2.46-2.46-2.46,1.1014-2.46,2.46,1.101,2.46,2.46,2.46Z"/>
      <path class="cls-2" d="m112.293,39.9885c1.359,0,2.46-1.1014,2.46-2.46s-1.101-2.46-2.46-2.46-2.46,1.1014-2.46,2.46,1.101,2.46,2.46,2.46Z"/>
    </g>
  </g>
</svg>