<?xml version="1.0" encoding="UTF-8"?>
<svg xmlns="http://www.w3.org/2000/svg" xmlns:xlink="http://www.w3.org/1999/xlink" viewBox="0 0 835.34 960.5">
  <defs>
    <style>
      .cls-1 {
        clip-path: url(#clippath-2);
      }

      .cls-2, .cls-3, .cls-4, .cls-5 {
        fill: none;
      }

      .cls-2, .cls-6, .cls-7 {
        stroke-width: 0px;
      }

      .cls-3 {
        stroke-width: 2.8346px;
      }

      .cls-3, .cls-4, .cls-5 {
        stroke-miterlimit: 10;
      }

      .cls-3, .cls-5 {
        stroke: #fff;
      }

      .cls-8 {
        clip-path: url(#clippath-1);
      }

      .cls-9 {
        clip-path: url(#clippath-4);
      }

      .cls-6, .cls-7 {
        fill: #fff;
      }

      .cls-4 {
        stroke: #000;
        stroke-width: 1.7008px;
      }

      .cls-7 {
        fill-rule: evenodd;
      }

      .cls-10 {
        clip-path: url(#clippath);
      }

      .cls-11 {
        clip-path: url(#clippath-3);
      }

      .cls-12 {
        mask: url(#mask);
      }

      .cls-5 {
        stroke-width: 5.6693px;
      }
    </style>
    <clipPath id="clippath">
      <rect class="cls-2" y="128.65" width="835.34" height="758.1501"/>
    </clipPath>
    <clipPath id="clippath-1">
      <rect class="cls-2" x="718.0951" y="491.8664" width="58.32" height="58.32"/>
    </clipPath>
    <clipPath id="clippath-2">
      <rect class="cls-2" x="22.5604" y="875.222" width="77.3" height="77.3" transform="translate(-212.4108 39.7781) rotate(-13.55)"/>
    </clipPath>
    <clipPath id="clippath-3">
      <rect class="cls-2" x="55.9451" y="757.2651" width="57.84" height="57.84" transform="translate(-181.8362 41.7662) rotate(-13.55)"/>
    </clipPath>
    <clipPath id="clippath-4">
      <rect class="cls-2" x="709.1503" y="-10.9287" width="76.2097" height="797.1139"/>
    </clipPath>
    <mask id="mask" x="709.4293" y="-10.3449" width="75.6514" height="535.4415" maskUnits="userSpaceOnUse">
      <g id="mask0_314_1341" data-name="mask0 314 1341">
        <path class="cls-6" d="m722.4172,48.5434v397.8559h49.6754V48.5434h-49.6754Z"/>
      </g>
    </mask>
  </defs>
  <g id="Capa_1" data-name="Capa 1">
    <g class="cls-10">
      <g>
        <path class="cls-4" d="m817.88,137.4h17.46"/>
        <path class="cls-4" d="m826.59,128.65v17.53"/>
        <path class="cls-4" d="m749.73,137.4h17.46"/>
        <path class="cls-4" d="m758.45,128.65v17.53"/>
        <path class="cls-4" d="m681.56,137.4h17.46"/>
        <path class="cls-4" d="m690.3,128.65v17.53"/>
        <path class="cls-4" d="m613.41,137.4h17.46"/>
        <path class="cls-4" d="m622.13,128.65v17.53"/>
        <path class="cls-4" d="m545.24,137.4h17.46"/>
        <path class="cls-4" d="m553.99,128.65v17.53"/>
        <path class="cls-4" d="m477.1,137.4h17.46"/>
        <path class="cls-4" d="m485.82,128.65v17.53"/>
        <path class="cls-4" d="m408.95,137.4h17.46"/>
        <path class="cls-4" d="m417.67,128.65v17.53"/>
        <path class="cls-4" d="m340.78,137.4h17.46"/>
        <path class="cls-4" d="m349.52,128.65v17.53"/>
        <path class="cls-4" d="m272.63,137.4h17.46"/>
        <path class="cls-4" d="m281.35,128.65v17.53"/>
        <path class="cls-4" d="m204.46,137.4h17.46"/>
        <path class="cls-4" d="m213.21,128.65v17.53"/>
        <path class="cls-4" d="m136.32,137.4h17.46"/>
        <path class="cls-4" d="m145.04,128.65v17.53"/>
        <path class="cls-4" d="m68.15,137.4h17.49"/>
        <path class="cls-4" d="m76.89,128.65v17.53"/>
        <path class="cls-4" d="m0,137.4h17.46"/>
        <path class="cls-4" d="m8.75,128.65v17.53"/>
        <path class="cls-4" d="m817.88,204.74h17.46"/>
        <path class="cls-4" d="m826.59,195.99v17.53"/>
        <path class="cls-4" d="m749.7,204.74h17.49"/>
        <path class="cls-4" d="m758.45,195.99v17.53"/>
        <path class="cls-4" d="m681.56,204.74h17.46"/>
        <path class="cls-4" d="m690.3,195.99v17.53"/>
        <path class="cls-4" d="m613.41,204.74h17.46"/>
        <path class="cls-4" d="m622.13,195.99v17.53"/>
        <path class="cls-4" d="m545.24,204.74h17.46"/>
        <path class="cls-4" d="m553.99,195.99v17.53"/>
        <path class="cls-4" d="m477.1,204.74h17.46"/>
        <path class="cls-4" d="m485.82,195.99v17.53"/>
        <path class="cls-4" d="m408.95,204.74h17.46"/>
        <path class="cls-4" d="m417.67,195.99v17.53"/>
        <path class="cls-4" d="m340.78,204.74h17.46"/>
        <path class="cls-4" d="m349.52,195.99v17.53"/>
        <path class="cls-4" d="m272.63,204.74h17.46"/>
        <path class="cls-4" d="m281.35,195.99v17.53"/>
        <path class="cls-4" d="m204.46,204.74h17.46"/>
        <path class="cls-4" d="m213.21,195.99v17.53"/>
        <path class="cls-4" d="m136.32,204.74h17.46"/>
        <path class="cls-4" d="m145.04,195.99v17.53"/>
        <path class="cls-4" d="m68.15,204.74h17.49"/>
        <path class="cls-4" d="m76.89,195.99v17.53"/>
        <path class="cls-4" d="m0,204.74h17.46"/>
        <path class="cls-4" d="m8.75,195.99v17.53"/>
        <path class="cls-4" d="m817.88,272.08h17.46"/>
        <path class="cls-4" d="m826.59,263.3v17.53"/>
        <path class="cls-4" d="m749.73,272.08h17.46"/>
        <path class="cls-4" d="m758.45,263.3v17.53"/>
        <path class="cls-4" d="m681.56,272.08h17.46"/>
        <path class="cls-4" d="m690.3,263.3v17.53"/>
        <path class="cls-4" d="m613.41,272.08h17.46"/>
        <path class="cls-4" d="m622.13,263.3v17.53"/>
        <path class="cls-4" d="m545.24,272.08h17.46"/>
        <path class="cls-4" d="m553.99,263.3v17.53"/>
        <path class="cls-4" d="m477.1,272.08h17.46"/>
        <path class="cls-4" d="m485.82,263.3v17.53"/>
        <path class="cls-4" d="m408.95,272.08h17.46"/>
        <path class="cls-4" d="m417.67,263.3v17.53"/>
        <path class="cls-4" d="m340.78,272.08h17.46"/>
        <path class="cls-4" d="m349.52,263.3v17.53"/>
        <path class="cls-4" d="m272.63,272.08h17.46"/>
        <path class="cls-4" d="m281.35,263.3v17.53"/>
        <path class="cls-4" d="m204.46,272.08h17.46"/>
        <path class="cls-4" d="m213.21,263.3v17.53"/>
        <path class="cls-4" d="m136.32,272.08h17.46"/>
        <path class="cls-4" d="m145.04,263.3v17.53"/>
        <path class="cls-4" d="m68.15,272.08h17.49"/>
        <path class="cls-4" d="m76.89,263.3v17.53"/>
        <path class="cls-4" d="m0,272.08h17.46"/>
        <path class="cls-4" d="m8.75,263.3v17.53"/>
        <path class="cls-4" d="m817.88,339.4h17.46"/>
        <path class="cls-4" d="m826.59,330.64v17.53"/>
        <path class="cls-4" d="m749.73,339.4h17.46"/>
        <path class="cls-4" d="m758.45,330.64v17.53"/>
        <path class="cls-4" d="m681.56,339.4h17.46"/>
        <path class="cls-4" d="m690.3,330.64v17.53"/>
        <path class="cls-4" d="m613.41,339.4h17.46"/>
        <path class="cls-4" d="m622.13,330.64v17.53"/>
        <path class="cls-4" d="m545.24,339.4h17.46"/>
        <path class="cls-4" d="m553.99,330.64v17.53"/>
        <path class="cls-4" d="m477.1,339.4h17.46"/>
        <path class="cls-4" d="m485.82,330.64v17.53"/>
        <path class="cls-4" d="m408.95,339.4h17.46"/>
        <path class="cls-4" d="m417.67,330.64v17.53"/>
        <path class="cls-4" d="m340.78,339.4h17.46"/>
        <path class="cls-4" d="m349.52,330.64v17.53"/>
        <path class="cls-4" d="m272.63,339.4h17.46"/>
        <path class="cls-4" d="m281.35,330.64v17.53"/>
        <path class="cls-4" d="m204.46,339.4h17.46"/>
        <path class="cls-4" d="m213.21,330.64v17.53"/>
        <path class="cls-4" d="m136.32,339.4h17.46"/>
        <path class="cls-4" d="m145.04,330.64v17.53"/>
        <path class="cls-4" d="m68.15,339.4h17.49"/>
        <path class="cls-4" d="m76.89,330.64v17.53"/>
        <path class="cls-4" d="m0,339.4h17.46"/>
        <path class="cls-4" d="m8.75,330.64v17.53"/>
        <path class="cls-4" d="m817.88,406.74h17.46"/>
        <path class="cls-4" d="m826.59,397.96v17.53"/>
        <path class="cls-4" d="m749.73,406.74h17.46"/>
        <path class="cls-4" d="m758.45,397.96v17.53"/>
        <path class="cls-4" d="m681.56,406.74h17.46"/>
        <path class="cls-4" d="m690.3,397.96v17.53"/>
        <path class="cls-4" d="m613.41,406.74h17.46"/>
        <path class="cls-4" d="m622.13,397.96v17.53"/>
        <path class="cls-4" d="m545.24,406.74h17.46"/>
        <path class="cls-4" d="m553.99,397.96v17.53"/>
        <path class="cls-4" d="m477.1,406.74h17.46"/>
        <path class="cls-4" d="m485.82,397.96v17.53"/>
        <path class="cls-4" d="m408.95,406.74h17.46"/>
        <path class="cls-4" d="m417.67,397.96v17.53"/>
        <path class="cls-4" d="m340.78,406.74h17.46"/>
        <path class="cls-4" d="m349.52,397.96v17.53"/>
        <path class="cls-4" d="m272.63,406.74h17.46"/>
        <path class="cls-4" d="m281.35,397.96v17.53"/>
        <path class="cls-4" d="m204.46,406.74h17.46"/>
        <path class="cls-4" d="m213.21,397.96v17.53"/>
        <path class="cls-4" d="m136.32,406.74h17.46"/>
        <path class="cls-4" d="m145.04,397.96v17.53"/>
        <path class="cls-4" d="m68.15,406.74h17.49"/>
        <path class="cls-4" d="m76.89,397.96v17.53"/>
        <path class="cls-4" d="m0,406.74h17.46"/>
        <path class="cls-4" d="m8.75,397.96v17.53"/>
        <path class="cls-4" d="m817.88,474.05h17.46"/>
        <path class="cls-4" d="m826.59,465.3v17.53"/>
        <path class="cls-4" d="m749.73,474.05h17.46"/>
        <path class="cls-4" d="m758.45,465.3v17.53"/>
        <path class="cls-4" d="m681.56,474.05h17.46"/>
        <path class="cls-4" d="m690.3,465.3v17.53"/>
        <path class="cls-4" d="m613.41,474.05h17.46"/>
        <path class="cls-4" d="m622.13,465.3v17.53"/>
        <path class="cls-4" d="m545.24,474.05h17.46"/>
        <path class="cls-4" d="m553.99,465.3v17.53"/>
        <path class="cls-4" d="m477.1,474.05h17.46"/>
        <path class="cls-4" d="m485.82,465.3v17.53"/>
        <path class="cls-4" d="m408.95,474.05h17.46"/>
        <path class="cls-4" d="m417.67,465.3v17.53"/>
        <path class="cls-4" d="m340.78,474.05h17.46"/>
        <path class="cls-4" d="m349.52,465.3v17.53"/>
        <path class="cls-4" d="m272.63,474.05h17.46"/>
        <path class="cls-4" d="m281.35,465.3v17.53"/>
        <path class="cls-4" d="m204.46,474.05h17.46"/>
        <path class="cls-4" d="m213.21,465.3v17.53"/>
        <path class="cls-4" d="m136.32,474.05h17.46"/>
        <path class="cls-4" d="m145.04,465.3v17.53"/>
        <path class="cls-4" d="m68.15,474.05h17.49"/>
        <path class="cls-4" d="m76.89,465.3v17.53"/>
        <path class="cls-4" d="m0,474.05h17.46"/>
        <path class="cls-4" d="m8.75,465.3v17.53"/>
        <path class="cls-4" d="m817.88,541.39h17.46"/>
        <path class="cls-4" d="m826.59,532.61v17.53"/>
        <path class="cls-4" d="m749.73,541.39h17.46"/>
        <path class="cls-4" d="m758.45,532.61v17.53"/>
        <path class="cls-4" d="m681.56,541.39h17.46"/>
        <path class="cls-4" d="m690.3,532.61v17.53"/>
        <path class="cls-4" d="m613.41,541.39h17.46"/>
        <path class="cls-4" d="m622.13,532.61v17.53"/>
        <path class="cls-4" d="m545.24,541.39h17.46"/>
        <path class="cls-4" d="m553.99,532.61v17.53"/>
        <path class="cls-4" d="m477.1,541.39h17.46"/>
        <path class="cls-4" d="m485.82,532.61v17.53"/>
        <path class="cls-4" d="m408.95,541.39h17.46"/>
        <path class="cls-4" d="m417.67,532.61v17.53"/>
        <path class="cls-4" d="m340.78,541.39h17.46"/>
        <path class="cls-4" d="m349.52,532.61v17.53"/>
        <path class="cls-4" d="m272.63,541.39h17.46"/>
        <path class="cls-4" d="m281.35,532.61v17.53"/>
        <path class="cls-4" d="m204.46,541.39h17.46"/>
        <path class="cls-4" d="m213.21,532.61v17.53"/>
        <path class="cls-4" d="m136.32,541.39h17.46"/>
        <path class="cls-4" d="m145.04,532.61v17.53"/>
        <path class="cls-4" d="m68.15,541.39h17.49"/>
        <path class="cls-4" d="m76.89,532.61v17.53"/>
        <path class="cls-4" d="m0,541.39h17.46"/>
        <path class="cls-4" d="m8.75,532.61v17.53"/>
        <path class="cls-4" d="m817.88,608.71h17.46"/>
        <path class="cls-4" d="m826.59,599.96v17.53"/>
        <path class="cls-4" d="m749.73,608.71h17.46"/>
        <path class="cls-4" d="m758.45,599.96v17.53"/>
        <path class="cls-4" d="m681.56,608.71h17.46"/>
        <path class="cls-4" d="m690.3,599.96v17.53"/>
        <path class="cls-4" d="m613.41,608.71h17.46"/>
        <path class="cls-4" d="m622.13,599.96v17.53"/>
        <path class="cls-4" d="m545.24,608.71h17.46"/>
        <path class="cls-4" d="m553.99,599.96v17.53"/>
        <path class="cls-4" d="m477.1,608.71h17.46"/>
        <path class="cls-4" d="m485.82,599.96v17.53"/>
        <path class="cls-4" d="m408.95,608.71h17.46"/>
        <path class="cls-4" d="m417.67,599.96v17.53"/>
        <path class="cls-4" d="m340.78,608.71h17.46"/>
        <path class="cls-4" d="m349.52,599.96v17.53"/>
        <path class="cls-4" d="m272.63,608.71h17.46"/>
        <path class="cls-4" d="m281.35,599.96v17.53"/>
        <path class="cls-4" d="m204.46,608.71h17.46"/>
        <path class="cls-4" d="m213.21,599.96v17.53"/>
        <path class="cls-4" d="m136.32,608.71h17.46"/>
        <path class="cls-4" d="m145.04,599.96v17.53"/>
        <path class="cls-4" d="m68.15,608.71h17.49"/>
        <path class="cls-4" d="m76.89,599.96v17.53"/>
        <path class="cls-4" d="m0,608.71h17.46"/>
        <path class="cls-4" d="m8.75,599.96v17.53"/>
        <path class="cls-4" d="m817.88,676.05h17.46"/>
        <path class="cls-4" d="m826.59,667.27v17.53"/>
        <path class="cls-4" d="m749.73,676.05h17.46"/>
        <path class="cls-4" d="m758.45,667.27v17.53"/>
        <path class="cls-4" d="m681.56,676.05h17.46"/>
        <path class="cls-4" d="m690.3,667.27v17.53"/>
        <path class="cls-4" d="m613.41,676.05h17.46"/>
        <path class="cls-4" d="m622.13,667.27v17.53"/>
        <path class="cls-4" d="m545.24,676.05h17.46"/>
        <path class="cls-4" d="m553.99,667.27v17.53"/>
        <path class="cls-4" d="m477.1,676.05h17.46"/>
        <path class="cls-4" d="m485.82,667.27v17.53"/>
        <path class="cls-4" d="m408.95,676.05h17.46"/>
        <path class="cls-4" d="m417.67,667.27v17.53"/>
        <path class="cls-4" d="m340.78,676.05h17.46"/>
        <path class="cls-4" d="m349.52,667.27v17.53"/>
        <path class="cls-4" d="m272.63,676.05h17.46"/>
        <path class="cls-4" d="m281.35,667.27v17.53"/>
        <path class="cls-4" d="m204.46,676.05h17.46"/>
        <path class="cls-4" d="m213.21,667.27v17.53"/>
        <path class="cls-4" d="m136.32,676.05h17.46"/>
        <path class="cls-4" d="m145.04,667.27v17.53"/>
        <path class="cls-4" d="m68.15,676.05h17.49"/>
        <path class="cls-4" d="m76.89,667.27v17.53"/>
        <path class="cls-4" d="m0,676.05h17.46"/>
        <path class="cls-4" d="m8.75,667.27v17.53"/>
        <path class="cls-4" d="m817.88,743.36h17.46"/>
        <path class="cls-4" d="m826.59,734.61v17.53"/>
        <path class="cls-4" d="m749.73,743.36h17.46"/>
        <path class="cls-4" d="m758.45,734.61v17.53"/>
        <path class="cls-4" d="m681.56,743.36h17.46"/>
        <path class="cls-4" d="m690.3,734.61v17.53"/>
        <path class="cls-4" d="m613.41,743.36h17.46"/>
        <path class="cls-4" d="m622.13,734.61v17.53"/>
        <path class="cls-4" d="m545.24,743.36h17.46"/>
        <path class="cls-4" d="m553.99,734.61v17.53"/>
        <path class="cls-4" d="m477.1,743.36h17.46"/>
        <path class="cls-4" d="m485.82,734.61v17.53"/>
        <path class="cls-4" d="m408.95,743.36h17.46"/>
        <path class="cls-4" d="m417.67,734.61v17.53"/>
        <path class="cls-4" d="m340.78,743.36h17.46"/>
        <path class="cls-4" d="m349.52,734.61v17.53"/>
        <path class="cls-4" d="m272.63,743.36h17.46"/>
        <path class="cls-4" d="m281.35,734.61v17.53"/>
        <path class="cls-4" d="m204.46,743.36h17.46"/>
        <path class="cls-4" d="m213.21,734.61v17.53"/>
        <path class="cls-4" d="m136.32,743.36h17.46"/>
        <path class="cls-4" d="m145.04,734.61v17.53"/>
        <path class="cls-4" d="m68.15,743.36h17.49"/>
        <path class="cls-4" d="m76.89,734.61v17.53"/>
        <path class="cls-4" d="m0,743.36h17.46"/>
        <path class="cls-4" d="m8.75,734.61v17.53"/>
        <path class="cls-4" d="m817.88,810.71h17.46"/>
        <path class="cls-4" d="m826.59,801.93v17.53"/>
        <path class="cls-4" d="m749.73,810.71h17.46"/>
        <path class="cls-4" d="m758.45,801.93v17.53"/>
        <path class="cls-4" d="m681.56,810.71h17.46"/>
        <path class="cls-4" d="m690.3,801.93v17.53"/>
        <path class="cls-4" d="m613.41,810.71h17.46"/>
        <path class="cls-4" d="m622.13,801.93v17.53"/>
        <path class="cls-4" d="m545.24,810.71h17.46"/>
        <path class="cls-4" d="m553.99,801.93v17.53"/>
        <path class="cls-4" d="m477.1,810.71h17.46"/>
        <path class="cls-4" d="m485.82,801.93v17.53"/>
        <path class="cls-4" d="m408.95,810.71h17.46"/>
        <path class="cls-4" d="m417.67,801.93v17.53"/>
        <path class="cls-4" d="m340.78,810.71h17.46"/>
        <path class="cls-4" d="m349.52,801.93v17.53"/>
        <path class="cls-4" d="m272.63,810.71h17.46"/>
        <path class="cls-4" d="m281.35,801.93v17.53"/>
        <path class="cls-4" d="m204.46,810.71h17.46"/>
        <path class="cls-4" d="m213.21,801.93v17.53"/>
        <path class="cls-4" d="m136.32,810.71h17.46"/>
        <path class="cls-4" d="m145.04,801.93v17.53"/>
        <path class="cls-4" d="m68.15,810.71h17.49"/>
        <path class="cls-4" d="m76.89,801.93v17.53"/>
        <path class="cls-4" d="m0,810.71h17.46"/>
        <path class="cls-4" d="m8.75,801.93v17.53"/>
        <path class="cls-4" d="m817.88,878.02h17.46"/>
        <path class="cls-4" d="m826.59,869.27v17.53"/>
        <path class="cls-4" d="m749.73,878.02h17.46"/>
        <path class="cls-4" d="m758.45,869.27v17.53"/>
        <path class="cls-4" d="m681.56,878.02h17.46"/>
        <path class="cls-4" d="m690.3,869.27v17.53"/>
        <path class="cls-4" d="m613.41,878.02h17.46"/>
        <path class="cls-4" d="m622.13,869.27v17.53"/>
        <path class="cls-4" d="m545.24,878.02h17.46"/>
        <path class="cls-4" d="m553.99,869.27v17.53"/>
        <path class="cls-4" d="m477.1,878.02h17.46"/>
        <path class="cls-4" d="m485.82,869.27v17.53"/>
        <path class="cls-4" d="m408.95,878.02h17.46"/>
        <path class="cls-4" d="m417.67,869.27v17.53"/>
        <path class="cls-4" d="m340.78,878.02h17.46"/>
        <path class="cls-4" d="m349.52,869.27v17.53"/>
        <path class="cls-4" d="m272.63,878.02h17.46"/>
        <path class="cls-4" d="m281.35,869.27v17.53"/>
        <path class="cls-4" d="m204.46,878.02h17.46"/>
        <path class="cls-4" d="m213.21,869.27v17.53"/>
        <path class="cls-4" d="m136.32,878.02h17.46"/>
        <path class="cls-4" d="m145.04,869.27v17.53"/>
        <path class="cls-4" d="m68.15,878.02h17.49"/>
        <path class="cls-4" d="m76.89,869.27v17.53"/>
        <path class="cls-4" d="m0,878.02h17.46"/>
        <path class="cls-4" d="m8.75,869.27v17.53"/>
      </g>
    </g>
    <g class="cls-8">
      <path class="cls-5" d="m771.4651,521.0263c0,13.36-10.83,24.21-24.21,24.21s-24.21-10.85-24.21-24.21,10.83-24.21,24.21-24.21,24.21,10.85,24.21,24.21Z"/>
    </g>
    <g class="cls-1">
      <path class="cls-7" d="m93.52,882.96l-19.51-11.93-16.59,27.12-27.12-16.59-11.93,19.51,27.12,16.59-16.59,27.12,19.51,11.93,16.59-27.12,27.12,16.59,11.93-19.51-27.12-16.59s16.59-27.12,16.59-27.12Z"/>
    </g>
    <g class="cls-11">
      <path class="cls-7" d="m109.04,763.05l-14.6-8.93-12.41,20.3-20.29-12.41-8.93,14.6,20.29,12.41-12.41,20.3,14.6,8.93,12.41-20.3,20.29,12.41,8.93-14.6-20.29-12.41s12.41-20.3,12.41-20.3Z"/>
    </g>
  </g>
  <g id="Capa_3" data-name="Capa 3">
    <g class="cls-9">
      <g class="cls-12">
        <g>
          <path class="cls-3" d="m710.4845,524.15l73.5411-81.9599"/>
          <path class="cls-3" d="m710.4845,506.7647l73.5411-81.962"/>
          <path class="cls-3" d="m710.4845,489.4186l73.5411-81.9599"/>
          <path class="cls-3" d="m710.4845,472.0333l73.5411-81.9599"/>
          <path class="cls-3" d="m710.4845,454.6893l73.5411-82.0033"/>
          <path class="cls-3" d="m710.4845,437.3019l73.5411-81.9599"/>
          <path class="cls-3" d="m710.4845,419.9144l73.5411-81.9599"/>
          <path class="cls-3" d="m710.4845,402.5705l73.5411-81.9599"/>
          <path class="cls-3" d="m710.4845,385.183l73.5411-81.9599"/>
          <path class="cls-3" d="m710.4845,367.8391l73.5411-82.0013"/>
          <path class="cls-3" d="m710.4845,350.4537l73.5411-81.962"/>
          <path class="cls-3" d="m710.4845,333.0663l73.5411-81.9599"/>
          <path class="cls-3" d="m710.4845,315.7223l73.5411-81.9599"/>
          <path class="cls-3" d="m710.4845,298.3349l73.5411-81.9599"/>
          <path class="cls-3" d="m710.4845,280.9909l73.5411-82.0033"/>
          <path class="cls-3" d="m710.4845,263.6035l73.5411-81.9599"/>
          <path class="cls-3" d="m710.4845,246.2595l73.5411-82.0027"/>
          <path class="cls-3" d="m710.4845,228.8721l73.5411-81.9595"/>
          <path class="cls-3" d="m710.4845,211.4868l73.5411-81.9609"/>
          <path class="cls-3" d="m710.4845,194.1418l73.5411-81.9601"/>
          <path class="cls-3" d="m710.4845,176.7549l73.5411-81.9601"/>
          <path class="cls-3" d="m710.4845,159.4108l73.5411-82.0027"/>
          <path class="cls-3" d="m710.4845,142.024l73.5411-81.9603"/>
          <path class="cls-3" d="m710.4845,124.6372l73.5411-81.9601"/>
          <path class="cls-3" d="m710.4845,107.293l73.5411-81.9603"/>
          <path class="cls-3" d="m710.4845,89.9062L784.0256,7.9459"/>
          <path class="cls-3" d="m710.4845,72.5618l73.5411-81.9601"/>
        </g>
      </g>
    </g>
  </g>
</svg>