<?xml version="1.0" encoding="UTF-8"?>
<svg id="Capa_1" data-name="Capa 1" xmlns="http://www.w3.org/2000/svg" viewBox="0 0 45.4224 35.9063">
  <defs>
    <style>
      .cls-1 {
        fill: none;
        stroke: #fff;
        stroke-linecap: round;
        stroke-linejoin: round;
      }
    </style>
  </defs>
  <path class="cls-1" d="m3.6718,35.4027h9.5188V3.38l-2.9167-1.8678C6.0532-1.189.5,1.8354.5,6.8355v25.4098c0,1.7458,1.4224,3.1609,3.1753,3.1609"/>
  <path class="cls-1" d="m.5,6.8358v4.2242l12.6906,8.1287,9.5189,6.0993,9.5187-6.0993,12.6942-8.1287v-4.2278c0-5.0001-5.5568-8.0245-9.781-5.3162l-2.9095,1.8678-9.5224,6.0956L13.1906,3.3803l-2.9167-1.8679C6.0532-1.1888.5,1.8357.5,6.8358Z"/>
  <path class="cls-1" d="m32.228,35.4029h9.5189c.416.0015.8282-.0793,1.2129-.2374.3847-.1582.7345-.3909,1.0291-.6846.2947-.2937.5285-.6425.6881-1.0267.1594-.3844.2416-.7962.2416-1.2123V6.8322c0-5.0001-5.5531-8.0245-9.7773-5.3162l-2.9095,1.8678-.0037,32.0191Z"/>
</svg>