<?xml version="1.0" encoding="UTF-8"?>
<svg id="Capa_1" data-name="Capa 1" xmlns="http://www.w3.org/2000/svg" xmlns:xlink="http://www.w3.org/1999/xlink" viewBox="0 0 50 50">
  <defs>
    <style>
      .cls-1 {
        fill: none;
      }

      .cls-1, .cls-2 {
        stroke-width: 0px;
      }

      .cls-2 {
        fill: #fff;
        fill-rule: evenodd;
      }

      .cls-3 {
        clip-path: url(#clippath);
      }
    </style>
    <clipPath id="clippath">
      <rect class="cls-1" x="2.8535" y="3.6952" width="43.8848" height="43.8848"/>
    </clipPath>
  </defs>
  <g class="cls-3">
    <path class="cls-2" d="m46.6088,6.3524c.136-.3533.1646-.7373.0856-1.1081-.0768-.3686-.2611-.7087-.5288-.9764s-.6078-.452-.9786-.531c-.3686-.079-.7548-.0483-1.1081.0856L4.1132,19.1053c-.3645.1382-.6791.3818-.9038.7-.2247.3204-.3491.6978-.3577,1.0883-.0083.3884.0998.7724.3105,1.1015.2106.327.5145.5859.8726.7395l16.5288,7.1335,7.1346,16.5292c.1542.3576.4121.6627.7399.8733.3281.2106.7116.3181,1.1013.3094.3899-.0066.7682-.1316,1.0868-.3576.3188-.2239.563-.5376.7019-.9019L46.6088,6.3524Zm-25.39,19.5354l-11.2062-4.8427,31.3739-11.9959-11.9957,31.3733-4.8462-11.2126,7.7896-7.7895c.4154-.4454.6414-1.0335.6306-1.6435-.0107-.6078-.2574-1.1893-.6881-1.6216-.4307-.43-1.012-.6758-1.6209-.6868-.6091-.011-1.1987.215-1.6444.6297l-7.7926,7.7896Z"/>
  </g>
</svg>