<?xml version="1.0" encoding="UTF-8"?>
<svg id="Capa_2" data-name="Capa 2" xmlns="http://www.w3.org/2000/svg" viewBox="0 0 55 55">
  <defs>
    <style>
      .cls-1, .cls-2 {
        stroke-width: 0px;
      }

      .cls-2 {
        fill: #fff;
      }
    </style>
  </defs>
  <path class="cls-1" d="m27.7441,2.2967l21.651,12.5v25l-21.651,12.5-21.6506-12.5V14.7967L27.7441,2.2967Z"/>
  <path class="cls-2" d="m27.8871,13.1538c-1.876,0-3.734.3695-5.467,1.0875-1.733.7179-3.3081,1.7702-4.6347,3.0967-2.6791,2.6787-4.1842,6.3127-4.1842,10.1017,0,6.314,4.1,11.671,9.7719,13.571.714.115.942-.328.942-.714v-2.414c-3.957.857-4.7996-1.915-4.7996-1.915-.6571-1.657-1.5857-2.1-1.5857-2.1-1.3-.885.1-.857.1-.857,1.4286.1,2.1853,1.472,2.1853,1.472,1.243,2.171,3.343,1.528,4.158,1.185.128-.928.5-1.557.9-1.914-3.172-.357-6.5004-1.586-6.5004-7.028,0-1.586.5428-2.858,1.4714-3.872-.143-.357-.6429-1.843.143-3.7713,0,0,1.2-.3857,3.928,1.4573,1.129-.314,2.358-.472,3.572-.472s2.443.158,3.571.472c2.729-1.843,3.929-1.4573,3.929-1.4573.786,1.9283.286,3.4143.143,3.7713.928,1.014,1.471,2.286,1.471,3.872,0,5.457-3.343,6.657-6.528,7.014.514.443.985,1.314.985,2.643v3.914c0,.386.229.843.957.714,5.672-1.914,9.758-7.257,9.758-13.571,0-1.876-.37-3.734-1.088-5.467-.718-1.733-1.77-3.3081-3.097-4.6347-1.326-1.3265-2.901-2.3788-4.634-3.0967-1.733-.718-3.591-1.0875-5.467-1.0875Z"/>
</svg>