<?xml version="1.0" encoding="UTF-8"?>
<svg id="Capa_5" data-name="Capa 5" xmlns="http://www.w3.org/2000/svg" viewBox="0 0 55 55">
  <defs>
    <style>
      .cls-1 {
        fill: #2b98e9;
        fill-rule: evenodd;
      }

      .cls-1, .cls-2 {
        stroke-width: 0px;
      }

      .cls-2 {
        fill: #001d35;
      }
    </style>
  </defs>
  <path class="cls-2" d="m27.764,2.1677l21.651,12.5v25l-21.651,12.5-21.651-12.5V14.6677L27.764,2.1677Z"/>
  <path class="cls-1" d="m43.011,35.1147c0,1.936-.77,3.793-2.138,5.162-1.369,1.369-3.226,2.138-5.162,2.138h-15.367c-1.936,0-3.792-.769-5.161-2.138-1.369-1.369-2.138-3.226-2.138-5.162v-15.367c0-1.9357.769-3.7924,2.138-5.1612,1.369-1.3689,3.225-2.138,5.161-2.138h15.367c1.936,0,3.793.7691,5.162,2.138,1.368,1.3688,2.138,3.2255,2.138,5.1612v15.367Zm-22.667-.384c-.306,0-.599-.121-.815-.338-.216-.216-.337-.509-.337-.815v-12.293c0-.306.121-.599.337-.815.216-.216.509-.338.815-.338s.599.122.815.338c.216.216.338.509.338.815v11.141h4.994c.306,0,.599.121.815.338.216.216.337.509.337.814,0,.306-.121.599-.337.815-.216.217-.509.338-.815.338h-6.147Zm9.605-1.153c0,.306.121.599.337.815.216.217.509.338.815.338s.599-.121.815-.338c.216-.216.338-.509.338-.815v-4.607l.004-.069c.043-.444.182-.874.407-1.26.362-.602,1.131-1.363,3.046-1.363.306,0,.599-.121.815-.337.216-.217.338-.51.338-.815,0-.306-.122-.599-.338-.815-.216-.216-.509-.338-.815-.338-1.495,0-2.632.357-3.485.901-.062-.277-.224-.522-.455-.687-.231-.165-.515-.239-.797-.208-.282.031-.543.166-.732.377-.189.212-.294.486-.293.77v8.451Z"/>
</svg>