<?xml version="1.0" encoding="UTF-8"?>
<svg id="Capa_3" data-name="Capa 3" xmlns="http://www.w3.org/2000/svg" xmlns:xlink="http://www.w3.org/1999/xlink" viewBox="0 0 55 55">
  <defs>
    <style>
      .cls-1 {
        fill: none;
      }

      .cls-1, .cls-2, .cls-3 {
        stroke-width: 0px;
      }

      .cls-4 {
        clip-path: url(#clippath);
      }

      .cls-2 {
        fill: #ff9a00;
      }

      .cls-3 {
        fill: #320000;
      }
    </style>
    <clipPath id="clippath">
      <rect class="cls-1" x="12.5" y="12.5" width="30" height="30"/>
    </clipPath>
  </defs>
  <path class="cls-3" d="m27.5,2.5l21.651,12.5v25l-21.651,12.5-21.651-12.5V15L27.5,2.5Z"/>
  <g class="cls-4">
    <path class="cls-2" d="m37.187,12.875h-19.374c-.698-.0009-1.389.1359-2.034.4026-.645.2667-1.231.658-1.725,1.1516-.493.4935-.885,1.0796-1.151,1.7247-.267.645-.404,1.3364-.403,2.0344v18.6234c-.001.698.136,1.3894.403,2.0344.266.6451.658,1.2312,1.151,1.7247.494.4936,1.08.8849,1.725,1.1516.645.2667,1.336.4035,2.034.4026h19.374c.698.0009,1.389-.1359,2.034-.4026.645-.2667,1.231-.658,1.725-1.1516.493-.4935.885-1.0796,1.151-1.7247.267-.645.404-1.3364.403-2.0344v-18.6234c.001-.698-.136-1.3894-.403-2.0344-.266-.6451-.658-1.2312-1.151-1.7247-.494-.4936-1.08-.8849-1.725-1.1516-.645-.2667-1.336-.4035-2.034-.4026Zm-6.349,20.625h-2.614c-.044.0034-.088-.0086-.124-.0337-.036-.0252-.063-.0621-.075-.1046l-1.024-2.9859h-4.657l-.938,2.9367c-.01.0532-.04.1006-.083.1331-.043.0325-.097.0477-.151.0427h-2.344c-.136,0-.173-.075-.136-.2344l4.008-11.5781c.038-.1266.075-.2625.124-.4125.051-.268.077-.5404.075-.8133-.003-.0315.005-.0631.024-.0887.018-.0256.046-.0433.077-.0496h3.237c.101,0,.15.0375.164.1008l4.561,12.8742c.037.1383,0,.2016-.124.2016v.0117Zm4.312-.1406c0,.1383-.049.1992-.162.1992h-2.451c-.026.002-.053-.0019-.077-.0114-.025-.0095-.047-.0243-.065-.0434-.018-.0191-.031-.042-.039-.067s-.01-.0514-.007-.0774v-9.6352c0-.1242.052-.1734.164-.1734h2.487c.113,0,.162.0609.162.1734l-.012,9.6352Zm-.263-11.2969c-.147.1497-.325.2663-.521.3418-.196.0756-.405.1085-.615.0965-.206.0045-.41-.0319-.601-.1072-.191-.0752-.365-.1878-.512-.3311-.288-.3126-.441-.7262-.425-1.1508-.008-.2059.026-.4114.103-.6029.076-.1915.192-.3646.34-.508.3-.2846.698-.4417,1.111-.4383.21-.0109.42.0226.616.0981.197.0755.375.1914.523.3402.276.3029.424.7012.413,1.1109.008.2109-.026.4213-.1.6189-.074.1976-.187.3785-.332.5319Zm-8.636,5.775h-3.176c.188-.525.375-1.1133.551-1.7508.176-.6375.387-1.2492.574-1.8492.171-.5293.312-1.0677.424-1.6125h.026c.087.3.176.6258.274.975.099.3492.214.7242.338,1.1133.124.389.234.7617.363,1.1484s.234.7383.338,1.0758c.103.3375.213.6375.288.9Z"/>
  </g>
</svg>