<?xml version="1.0" encoding="UTF-8"?>
<svg id="Capa_2" data-name="Capa 2" xmlns="http://www.w3.org/2000/svg" viewBox="0 0 55 55">
  <defs>
    <style>
      .cls-1 {
        fill: #0af;
      }

      .cls-1, .cls-2 {
        stroke-width: 0px;
      }

      .cls-2 {
        fill: #001834;
      }
    </style>
  </defs>
  <path class="cls-2" d="m27.5,2.5l21.651,12.5v25l-21.651,12.5-21.651-12.5V15L27.5,2.5Z"/>
  <path class="cls-1" d="m17.812,12.5c-2.937,0-5.312,2.436-5.312,5.449v19.102c0,3.013,2.375,5.449,5.312,5.449h19.376c2.937,0,5.312-2.436,5.312-5.449v-19.102c0-3.013-2.375-5.449-5.312-5.449h-19.376Zm5.438,7.628c1.025,0,1.875.128,2.575.397.627.219,1.2.578,1.675,1.052.403.415.714.913.913,1.461.187.539.287,1.09.287,1.667,0,1.103-.25,2.013-.75,2.731-.5.718-1.2,1.256-2.012,1.564-.85.321-1.788.436-2.813.436-.3,0-.5,0-.625-.013s-.3-.013-.538-.013v4.116c.013.089-.05.167-.137.179h-2.425c-.1,0-.15-.051-.15-.167v-13.192c0-.09.038-.141.125-.141.213,0,.413,0,.7-.013.3-.013.613-.012.95-.025.338-.013.7-.013,1.088-.026.387-.013.762-.013,1.137-.013Zm.279,2.525c-.064-.001-.128-.001-.191.001-.325,0-.613,0-.851.013-.249-.013-.424,0-.512.013v4.307c.175.013.337.026.487.026h.663c.488,0,.975-.077,1.438-.231.4-.115.75-.359,1.024-.68.263-.32.388-.756.388-1.32.012-.401-.088-.796-.287-1.141-.213-.333-.513-.59-.876-.731-.404-.168-.838-.248-1.283-.257Zm10.484.655c.512,0,1.037.038,1.549.115.376.051.738.154,1.075.295.051.013.1.064.125.115.013.051.026.103.026.154v2.09c0,.025-.006.049-.017.072-.011.022-.026.041-.046.056-.112.026-.175.026-.225,0-.375-.205-.775-.346-1.2-.436-.463-.102-.925-.167-1.4-.167-.25-.013-.513.026-.75.09-.163.039-.3.129-.388.257-.062.102-.099.231-.099.346s.05.231.125.333c.112.141.262.257.424.347.29.153.586.294.888.422.675.231,1.325.552,1.925.936.412.27.75.629.987,1.065.201.408.3.862.288,1.32.01.606-.16,1.201-.488,1.705-.348.512-.835.908-1.399,1.141-.613.269-1.363.41-2.263.41-.575,0-1.137-.051-1.7-.166-.441-.078-.869-.216-1.275-.411-.087-.051-.15-.141-.138-.243v-2.231c0-.038.013-.09.05-.115.038-.026.075-.013.113.013.481.291,1.004.503,1.55.628.475.128.975.192,1.475.192.475,0,.813-.064,1.038-.179.2-.09.337-.308.337-.539,0-.179-.1-.346-.3-.513s-.612-.359-1.225-.602c-.628-.227-1.225-.538-1.775-.923-.392-.287-.716-.659-.95-1.09-.199-.405-.298-.854-.287-1.308,0-.551.149-1.077.424-1.551.313-.513.776-.923,1.313-1.179.588-.308,1.325-.449,2.213-.449Z"/>
</svg>