<?xml version="1.0" encoding="UTF-8"?>
<svg id="Capa_2" data-name="Capa 2" xmlns="http://www.w3.org/2000/svg" xmlns:xlink="http://www.w3.org/1999/xlink" viewBox="0 0 55 55">
  <defs>
    <style>
      .cls-1 {
        fill: #f29111;
      }

      .cls-1, .cls-2, .cls-3, .cls-4 {
        stroke-width: 0px;
      }

      .cls-2 {
        fill: none;
      }

      .cls-3 {
        fill: #fff;
      }

      .cls-4 {
        fill: #00628c;
      }

      .cls-5 {
        clip-path: url(#clippath);
      }
    </style>
    <clipPath id="clippath">
      <rect class="cls-2" x="10.5" y="16.6156" width="33.6956" height="22.9683"/>
    </clipPath>
  </defs>
  <path class="cls-4" d="m27.5,2.6156l21.651,12.5v25l-21.651,12.5-21.651-12.5V15.1156L27.5,2.6156Z"/>
  <g class="cls-5">
    <g>
      <path class="cls-3" d="m20.524,31.7716l1.024,3.323c.23.754.326,1.281.287,1.581.56-1.5.952-3.134,1.174-4.904h1.232c-.53,2.881-1.228,4.974-2.095,6.279-.675,1.007-1.415,1.51-2.221,1.51-.215,0-.479-.065-.794-.194v-.694c.154.022.334.034.541.034.376,0,.679-.104.91-.312.275-.253.414-.538.414-.854,0-.215-.108-.657-.323-1.326l-1.426-4.443h1.277Zm-7.838-2.042l1.876,5.723h.012l1.887-5.723h1.542c.337,2.838.537,5.435.598,7.789h-1.3c-.046-2.201-.172-4.27-.38-6.208h-.011l-1.979,6.208h-.99l-1.968-6.208h-.011c-.146,1.862-.238,3.931-.277,6.208h-1.185c.077-2.77.268-5.366.575-7.789h1.611Z"/>
      <path class="cls-1" d="m33.699,29.6136c2.017,0,3.026,1.289,3.026,3.866,0,1.4-.303,2.458-.91,3.173-.109.13-.23.243-.357.347l1.428.706h-.001l-.507.876-1.86-1.085c-.308.091-.647.137-1.017.137-.99,0-1.73-.289-2.219-.866-.537-.638-.806-1.642-.806-3.011,0-1.392.303-2.446.909-3.161.553-.655,1.324-.982,2.314-.982Zm-6.179.012c.721,0,1.377.193,1.967.577l-.299.669c-.506-.215-1.004-.323-1.495-.323-.399,0-.706.096-.921.289-.215.191-.348.438-.348.738,0,.461.329.861.935,1.199.199.109.397.219.595.33l.045.026.023.012.045.026.023.013.045.025c.459.259.892.506.892.506.606.431.909.89.909,1.647,0,.66-.242,1.202-.725,1.627-.483.422-1.131.634-1.944.634-.759,0-1.496-.244-2.209-.727l.334-.669c.613.307,1.169.461,1.668.461.467,0,.834-.104,1.099-.311.264-.208.422-.497.422-.865,0-.462-.321-.857-.911-1.189-.185-.102-.369-.205-.553-.309l-.045-.026c-.083-.047-.167-.094-.249-.141l-.044-.025c-.399-.227-.743-.425-.743-.425-.59-.431-.886-.894-.886-1.657,0-.631.221-1.141.661-1.529.442-.389,1.011-.583,1.709-.583Zm11.576.104v6.83h2.451v.959h-3.694v-7.789h1.243Zm3.813,6.833v.162h-.27v.793h-.206v-.793h-.28v-.162h.756Zm.497,0l.259.651.237-.651h.292v.955h-.194v-.727l-.27.727h-.14l-.271-.727h-.01v.727h-.184v-.955h.281Zm-9.834-5.991c-1.189,0-1.784.982-1.784,2.943,0,1.123.158,1.938.472,2.446.292.469.748.704,1.369.704,1.189,0,1.784-.989,1.784-2.966,0-1.108-.157-1.915-.472-2.423-.291-.469-.748-.704-1.369-.704"/>
      <path class="cls-3" d="m30.455,17.0986c.395-.97,1.774-.236,2.309.103.131.085.282.264.432.33.235.009.469.027.704.037.441.104.854.188,1.201.386,1.614.951,2.665,1.92,3.632,3.52.207.339.31.705.479,1.072.234.547.498,1.121.769,1.638.122.245.216.517.385.724.066.095.254.123.366.179.31.161.685.282.977.471.544.339,1.07.743,1.548,1.157.179.16.3.386.47.555v.086c-.151.046-.301.093-.451.131-.329.085-.62.066-.938.15-.197.057-.442.132-.648.152l.019.019c.121.347.779.629,1.079.837.365.263.704.583.976.95.094.094.188.179.282.272.065.095.083.217.15.302v.028c-.074-.026-.126-.075-.176-.127l-.03-.031c-.03-.031-.06-.061-.094-.086-.207-.142-.413-.311-.62-.442-.357-.226-.77-.358-1.135-.584-.207-.132-.404-.282-.601-.433-.179-.132-.376-.385-.488-.574-.066-.104-.075-.226-.151-.301.014-.126.129-.163.245-.194l.027-.007c.04-.01.079-.021.113-.034.488-.208,1.07-.283,1.821-.264-.028-.188-.498-.423-.648-.536-.3-.217-.619-.443-.938-.641-.169-.103-.46-.178-.648-.263-.253-.103-.816-.207-.957-.404-.238-.311-.41-.682-.576-1.057l-.045-.102-.046-.103c-.196-.451-.441-.921-.638-1.383-.103-.226-.15-.424-.263-.64-.685-1.326-1.699-2.437-2.928-3.218-.404-.254-.854-.49-1.351-.649-.282-.086-.62-.038-.92-.104h-.198c-.168-.047-.309-.226-.441-.32-.29-.198-.581-.33-.929-.471-.121-.056-.469-.188-.59-.084-.076.019-.114.047-.132.122-.075.113-.009.282.037.386.141.301.338.48.517.734.159.225.356.479.469.725.243.526.357,1.11.582,1.637.084.198.216.423.338.602.103.142.29.244.347.424.113.188-.169.809-.235,1.006-.244.772-.197,1.845.085,2.514l.015.035.015.036c.103.245.213.509.486.577.019-.018,0-.009.037-.018.066-.518.085-1.017.263-1.422.104-.253.309-.432.451-.639.094.056.094.226.15.339.122.291.253.611.404.903.309.602.657,1.186,1.051,1.713.131.188.319.395.488.565.075.065.159.103.216.188h.018v.028c-.282-.104-.46-.395-.685-.565-.422-.32-.929-.8-1.22-1.26-.122-.265-.254-.518-.385-.781v-.019c-.056.075-.037.149-.065.263-.122.47-.029,1.007-.451,1.176-.479.198-.836-.32-.985-.555-.479-.781-.61-2.098-.273-3.162.075-.235.085-.518.216-.706-.028-.169-.159-.216-.235-.32-.131-.178-.243-.385-.346-.583-.198-.386-.338-.847-.488-1.261-.066-.169-.085-.339-.151-.499-.112-.244-.319-.49-.478-.706-.216-.31-.845-.912-.592-1.524Zm3.078,1.843c.026.025.056.047.087.069l.038.026c.05.035.099.072.129.122.047.066.056.131.113.198,0,.226-.066.376-.198.47,0,0-.009.01-.018.019-.075-.151-.141-.301-.217-.451-.093-.132-.224-.236-.3-.387h-.018v-.018c.113-.028.225-.048.384-.048Z"/>
    </g>
  </g>
</svg>