<?xml version="1.0" encoding="UTF-8"?>
<svg id="Capa_4" data-name="Capa 4" xmlns="http://www.w3.org/2000/svg" viewBox="0 0 55 55">
  <defs>
    <style>
      .cls-1, .cls-2, .cls-3, .cls-4, .cls-5, .cls-6 {
        stroke-width: 0px;
      }

      .cls-2 {
        fill: #f4511e;
      }

      .cls-3 {
        fill: #7c4dff;
      }

      .cls-4 {
        fill: #29b6f6;
      }

      .cls-5 {
        fill: #ff8a65;
      }

      .cls-6 {
        fill: #00e676;
      }
    </style>
  </defs>
  <path class="cls-1" d="m27.5,1.9038l21.651,12.5v25l-21.651,12.5-21.651-12.5V14.4038L27.5,1.9038Z"/>
  <path class="cls-2" d="m22.766,13.6592h4.756v9.5109h-4.756c-1.261,0-2.47-.501-3.362-1.3928-.892-.8919-1.393-2.1014-1.393-3.3626s.501-2.4708,1.393-3.3626c.892-.8919,2.101-1.3929,3.362-1.3929Z"/>
  <path class="cls-5" d="m32.277,23.1701h-4.755v-9.5109h4.755c1.261,0,2.471.501,3.363,1.3929.892.8918,1.393,2.1013,1.393,3.3626s-.501,2.4707-1.393,3.3626c-.892.8918-2.102,1.3928-3.363,1.3928Z"/>
  <path class="cls-4" d="m27.522,27.9255c0,2.6264,2.129,4.7555,4.755,4.7555s4.756-2.1291,4.756-4.7555-2.129-4.7554-4.756-4.7554-4.755,2.1291-4.755,4.7554Z"/>
  <path class="cls-3" d="m22.766,23.1701h4.756v9.5109h-4.756c-1.261,0-2.47-.5011-3.362-1.3929-.892-.8918-1.393-2.1013-1.393-3.3626s.501-2.4708,1.393-3.3626c.892-.8918,2.101-1.3928,3.362-1.3928Z"/>
  <path class="cls-6" d="m22.766,32.681h4.756v4.7554c0,1.2612-.501,2.4708-1.393,3.3626s-2.101,1.3928-3.363,1.3928c-1.261,0-2.47-.501-3.362-1.3928-.892-.8918-1.393-2.1014-1.393-3.3626s.501-2.4708,1.393-3.3626c.892-.8918,2.101-1.3928,3.362-1.3928Z"/>
</svg>