<?xml version="1.0" encoding="UTF-8"?>
<svg id="Capa_8" data-name="Capa 8" xmlns="http://www.w3.org/2000/svg" viewBox="0 0 55 55">
  <defs>
    <style>
      .cls-1 {
        fill: #7d19f9;
      }

      .cls-1, .cls-2 {
        stroke-width: 0px;
      }

      .cls-2 {
        fill: #fff;
      }
    </style>
  </defs>
  <path class="cls-1" d="m27.4998,2.5l21.651,12.5v25l-21.651,12.5-21.6506-12.5V15L27.4998,2.5Z"/>
  <path class="cls-2" d="m18.2469,14.84c-1.8342,0-3.19,1.6057-3.1285,3.3457.0571,1.6729-.0186,3.84-.5643,5.6058-.5472,1.7714-1.4714,2.8942-2.9829,3.0385v1.6257c1.5115.1443,2.4357,1.2672,2.9829,3.0386.5457,1.7672.6214,3.9329.5628,5.6057-.06,1.74,1.2958,3.3457,3.1315,3.3457h18.7914c1.834,0,3.191-1.6057,3.131-3.3457-.058-1.6728.018-3.8385.562-5.6057.548-1.7714,1.471-2.8943,2.981-3.0386v-1.6257c-1.511-.1443-2.433-1.2671-2.981-3.0385-.544-1.7658-.62-3.9329-.562-5.6058.06-1.74-1.297-3.3457-3.131-3.3457h-18.7929Zm15.1159,15.7615c0,2.3971-1.787,3.8514-4.754,3.8514h-5.052c-.072.0004-.143-.0135-.209-.0407-.066-.0272-.126-.0672-.177-.1178-.051-.0506-.091-.1107-.118-.177-.028-.0662-.042-.1372-.042-.2088v-12.5314c0-.0716.015-.1424.042-.2084.027-.0661.068-.1261.118-.1765.051-.0504.111-.0904.178-.1175.066-.0271.137-.0409.208-.0405h5.022c2.474,0,4.098,1.3386,4.098,3.3972,0,1.4428-1.093,2.7371-2.484,2.9628v.0757c1.894.2072,3.17,1.52,3.17,3.3315Zm-5.306-8.0415h-2.88v4.0686h2.426c1.876,0,2.908-.7557,2.908-2.1057,0-1.2643-.888-1.9629-2.454-1.9629Zm-2.88,5.6815v4.4842h2.986c1.953,0,2.986-.7842,2.986-2.2571,0-1.4714-1.062-2.2271-3.112-2.2271h-2.86Z"/>
</svg>