<?xml version="1.0" encoding="UTF-8"?>
<svg id="Capa_2" data-name="Capa 2" xmlns="http://www.w3.org/2000/svg" xmlns:xlink="http://www.w3.org/1999/xlink" viewBox="0 0 55 55">
  <defs>
    <style>
      .cls-1 {
        fill: none;
      }

      .cls-1, .cls-2, .cls-3, .cls-4 {
        stroke-width: 0px;
      }

      .cls-5 {
        clip-path: url(#clippath-1);
      }

      .cls-2 {
        fill: #3ca7ff;
      }

      .cls-6 {
        clip-path: url(#clippath);
      }

      .cls-3 {
        fill: url(#Degradado_sin_nombre_2);
      }

      .cls-4 {
        fill: #08486e;
      }
    </style>
    <clipPath id="clippath">
      <rect class="cls-1" x="6.5" y="7.453" width="38" height="38"/>
    </clipPath>
    <clipPath id="clippath-1">
      <rect class="cls-1" x="10.152" y="11.453" width="35.1373" height="35"/>
    </clipPath>
    <linearGradient id="Degradado_sin_nombre_2" data-name="Degradado sin nombre 2" x1="-14.9964" y1="-585.9499" x2="1850.4455" y2="-2349.4039" gradientTransform="translate(564 -64) scale(1 -1)" gradientUnits="userSpaceOnUse">
      <stop offset="0" stop-color="#ffe052"/>
      <stop offset="1" stop-color="#ffc331"/>
    </linearGradient>
  </defs>
  <path class="cls-4" d="m27.5,3.453l21.651,12.5v25l-21.651,12.5-21.651-12.5V15.953L27.5,3.453Z"/>
  <g class="cls-6">
    <g class="cls-5">
      <g>
        <path class="cls-2" d="m27.572,11.4629c-8.899,0-8.343,3.8589-8.343,3.8589l.01,3.998h8.491v1.2002h-11.864s-5.694-.6457-5.694,8.333,4.97,8.66,4.97,8.66h2.966v-4.166s-.16-4.97,4.891-4.97h8.422s4.732.076,4.732-4.574v-7.6874s.718-4.6527-8.581-4.6527Zm-4.683,2.6885c.201,0,.4.0392.585.116.186.0767.354.1892.496.3311s.254.3103.331.4958c.077.1854.116.3841.116.5848s-.039.3994-.116.5848c-.077.1854-.189.3539-.331.4958s-.31.2544-.496.3311c-.185.0767-.384.1161-.585.1159-.2.0002-.399-.0392-.584-.1159-.186-.0767-.354-.1892-.496-.3311s-.255-.3104-.331-.4958c-.077-.1854-.116-.3842-.116-.5848s.039-.3994.116-.5848c.076-.1855.189-.3539.331-.4958s.31-.2544.496-.3311c.185-.0768.384-.1161.584-.116Z"/>
        <path class="cls-3" d="m27.825,46.333c8.898,0,8.343-3.859,8.343-3.859l-.01-3.998h-8.492v-1.2h11.864s5.694.646,5.694-8.333-4.97-8.6602-4.97-8.6602h-2.966v4.1662s.16,4.97-4.89,4.97h-8.422s-4.732-.076-4.732,4.573v7.689s-.719,4.652,8.581,4.652m4.682-2.688c-.201,0-.4-.039-.585-.116-.185-.077-.354-.189-.496-.331-.142-.142-.254-.311-.331-.496s-.116-.384-.116-.585.039-.399.116-.585c.077-.185.189-.354.331-.496.142-.141.311-.254.496-.331.185-.076.384-.116.585-.116s.399.04.585.116c.185.077.354.189.495.331.142.142.255.311.332.496.076.186.116.384.116.585s-.04.399-.116.585c-.077.185-.19.354-.332.496-.141.142-.31.254-.495.331-.186.076-.384.116-.585.116Z"/>
      </g>
    </g>
  </g>
</svg>