<?xml version="1.0" encoding="UTF-8"?>
<svg id="Capa_2" data-name="Capa 2" xmlns="http://www.w3.org/2000/svg" xmlns:xlink="http://www.w3.org/1999/xlink" viewBox="0 0 55 55">
  <defs>
    <style>
      .cls-1 {
        fill: url(#Degradado_sin_nombre_3);
      }

      .cls-1, .cls-2 {
        stroke-width: 0px;
      }

      .cls-2 {
        fill: #fff;
      }
    </style>
    <linearGradient id="Degradado_sin_nombre_3" data-name="Degradado sin nombre 3" x1="-535.972" y1="-66.5" x2="-535.972" y2="-116.5" gradientTransform="translate(564 -64) scale(1 -1)" gradientUnits="userSpaceOnUse">
      <stop offset="0" stop-color="#0a9dff"/>
      <stop offset=".4904" stop-color="#425cfc"/>
      <stop offset="1" stop-color="#7d19f9"/>
    </linearGradient>
  </defs>
  <path class="cls-1" d="m28.028,2.5l21.651,12.5v25l-21.651,12.5-21.651-12.5V15L28.028,2.5Z"/>
  <path class="cls-2" d="m45.08,29.04c-.052,0-.103.034-.138.12-.346,1-.829,1.604-1.225,1.604-.224,0-.31-.258-.31-.637,0-.984.585-3.072.878-4.037.034-.121.051-.224.051-.31,0-.277-.154-.416-.533-.416-.396,0-.845.155-1.26.898-.137-.656-.585-.933-1.208-.933-.706,0-1.397.467-1.965,1.208-.57.742-1.243.985-1.744.863.362-.878.499-1.553.499-2.036,0-.775-.378-1.241-.998-1.241-.933,0-1.468.896-1.468,1.828,0,.724.327,1.466,1.053,1.829-.604,1.363-1.483,2.606-1.829,2.606-.43,0-.568-2.122-.534-3.642.018-.861.086-.912.086-1.172,0-.155-.103-.258-.5-.258-.916,0-1.208.774-1.243,1.673-.017.344-.069.671-.155,1-.378,1.363-1.174,2.416-1.692,2.416-.24,0-.309-.241-.309-.553,0-.984.55-2.225.55-3.278,0-.775-.344-1.26-.981-1.26-.76,0-1.743.898-2.691,2.571.31-1.277.43-2.518-.484-2.518-.206,0-.396.052-.57.155-.058.027-.107.071-.141.126-.034.056-.05.12-.048.184.086,1.363-1.105,4.865-2.225,4.865-.207,0-.31-.223-.31-.585,0-.984.585-3.072.878-4.039.032-.106.049-.216.051-.327,0-.258-.154-.396-.533-.396-.396,0-.845.155-1.26.895-.155-.654-.585-.929-1.208-.929-1.017,0-2.139,1.067-2.64,2.466-.671,1.864-2,3.674-3.812,3.674-1.638,0-2.502-1.363-2.502-3.519,0-3.122,2.295-5.659,3.985-5.659.811,0,1.191.516,1.191,1.312,0,.965-.533,1.397-.533,1.776,0,.103.086.223.275.223.74,0,1.604-.86,1.604-2.051s-.933-2.036-2.623-2.036c-2.812,0-5.624,2.812-5.624,6.437,0,2.879,1.415,4.605,3.866,4.605,1.672,0,3.139-1.294,3.915-2.812.086,1.26.656,1.914,1.535,1.914.776,0,1.397-.465,1.881-1.276.189.844.671,1.258,1.311,1.258.723,0,1.346-.464,1.914-1.309,0,.671.138,1.309.727,1.309.275,0,.602-.068.653-.309.622-2.537,2.141-4.625,2.606-4.625.138,0,.172.138.172.293,0,.692-.482,2.106-.482,3.003,0,.984.413,1.621,1.277,1.621.949,0,1.914-1.155,2.553-2.864.206,1.589.638,2.864,1.311,2.864.828,0,2.329-1.759,3.227-3.622.344.051.879.034,1.397-.327-.223.55-.344,1.154-.344,1.741,0,1.726.826,2.208,1.534,2.208.776,0,1.397-.464,1.881-1.275.155.723.568,1.258,1.311,1.258,1.157,0,2.174-1.189,2.174-2.174.017-.206-.104-.378-.224-.378Zm-24.154,1.638c-.465,0-.654-.465-.654-1.174,0-1.223.843-3.276,1.724-3.276.379,0,.534.447.534,1.017,0,1.242-.792,3.433-1.604,3.433Zm16.096-3.657c-.275-.327-.378-.793-.378-1.191,0-.499.189-.914.395-.914.207,0,.293.207.293.517-.017.483-.189,1.225-.31,1.588Zm3.64,3.657c-.465,0-.654-.551-.654-1.174,0-1.189.843-3.276,1.725-3.276.378,0,.516.447.516,1.017.017,1.242-.757,3.433-1.587,3.433Z"/>
</svg>