<?xml version="1.0" encoding="UTF-8"?>
<svg id="Capa_6" data-name="Capa 6" xmlns="http://www.w3.org/2000/svg" xmlns:xlink="http://www.w3.org/1999/xlink" viewBox="0 0 55 55">
  <defs>
    <style>
      .cls-1 {
        fill: none;
      }

      .cls-1, .cls-2, .cls-3 {
        stroke-width: 0px;
      }

      .cls-2 {
        fill: #fff;
      }

      .cls-4 {
        clip-path: url(#clippath);
      }

      .cls-3 {
        fill: #4f5b93;
      }
    </style>
    <clipPath id="clippath">
      <rect class="cls-1" x="7.5" y="8.5" width="39.1304" height="39.1304"/>
    </clipPath>
  </defs>
  <path class="cls-3" d="m27.5,2.5l21.651,12.5v25l-21.651,12.5-21.651-12.5V15L27.5,2.5Z"/>
  <g class="cls-4">
    <path class="cls-2" d="m27.065,17.467c-10.971,0-19.565,4.655-19.565,10.598s8.594,10.598,19.565,10.598,19.565-4.655,19.565-10.598-8.594-10.598-19.565-10.598Zm-2.031,3.261h2.136l-.679,3.261h1.908c1.21,0,2.022.17,2.485.592.451.417.588,1.102.407,2.035l-.848,3.895h-2.171l.781-3.602c.093-.496.057-.836-.11-1.019-.164-.181-.528-.27-1.072-.27h-1.711l-1.032,4.891h-2.139l2.045-9.783Zm-9.382,3.261h4.347c2.072,0,3.328,1.389,2.837,3.462-.571,2.408-2.097,3.06-4.908,3.06h-1.343l-.426,2.446h-2.16l1.653-8.968Zm17.12,0h4.346c2.073,0,3.328,1.389,2.837,3.462-.57,2.408-2.098,3.06-4.907,3.06h-1.344l-.425,2.446h-2.161l1.654-8.968Zm-15.269,1.631l-.615,3.26h1.394c1.207,0,2.328-.137,2.516-1.935.07-.698-.22-1.325-1.614-1.325h-1.681Zm17.119,0l-.614,3.26h1.394c1.206,0,2.328-.137,2.515-1.935.07-.698-.218-1.325-1.614-1.325h-1.681Z"/>
  </g>
</svg>