<?xml version="1.0" encoding="UTF-8"?>
<svg id="Capa_1" data-name="Capa 1" xmlns="http://www.w3.org/2000/svg" viewBox="0 0 50 50">
  <defs>
    <style>
      .cls-1 {
        fill-rule: evenodd;
        stroke-width: 0px;
      }
    </style>
  </defs>
  <path class="cls-1" d="m3.1545,8.8436c0-1.3661.5424-2.6755,1.508-3.64.9655-.9662,2.2751-1.5085,3.6405-1.5085h33.1792c1.3654,0,2.675.5423,3.6405,1.5085.9655.9645,1.508,2.2739,1.508,3.64v24.1361c0,1.3661-.5425,2.6755-1.508,3.64-.9655.9662-2.2751,1.5085-3.6405,1.5085H14.9044l-8.8897,7.9613c-.2469.2197-.5525.3655-.8798.4153-.3273.0515-.6624.0069-.9649-.1287-.3024-.1356-.5592-.3552-.7394-.6332-.1802-.278-.2761-.6024-.2761-.9336V8.8436Zm5.1485-1.7162c-.4551,0-.8917.1802-1.2135.5028-.3218.3209-.5027.7585-.5027,1.2133v32.1266l6.5169-5.8349c.3143-.2815.7217-.4394,1.1441-.4394h27.2344c.4551,0,.8917-.1802,1.2135-.5028.3218-.3209.5027-.7585.5027-1.2133V8.8436c0-.4548-.1809-.8924-.5027-1.2133-.3218-.3226-.7584-.5028-1.2135-.5028H8.303Z"/>
</svg>