<?xml version="1.0" encoding="UTF-8"?>
<svg id="Capa_2" data-name="Capa 2" xmlns="http://www.w3.org/2000/svg" viewBox="0 0 14 14">
  <defs>
    <style>
      .cls-1 {
        fill: #fff;
        stroke-width: 0px;
      }
    </style>
  </defs>
  <path class="cls-1" d="m2.6667.4798c-.5749,0-1.1257.2283-1.5321.6346-.4064.4063-.6346.9574-.6346,1.5321v8.6667c0,.5746.2282,1.1257.6346,1.5321.4064.4063.9572.6346,1.5321.6346h8.6667c.5749,0,1.1257-.2283,1.5321-.6346.4064-.4064.6346-.9575.6346-1.5321V2.6465c0-.5746-.2282-1.1257-.6346-1.5321-.4064-.4063-.9572-.6346-1.5321-.6346H2.6667Zm5.2963,9.4287c.52.4189,1.04.6254,1.5581.6196.3178,0,.5614-.0583.7309-.1747.078-.0512.1425-.1222.1859-.2058.0433-.0836.0636-.1769.0597-.271.001-.1025-.0202-.204-.0626-.2974-.0424-.0933-.105-.1762-.183-.2429-.1695-.1478-.4902-.296-.962-.4448-.5662-.1637-1.0034-.3756-1.3106-.6356-.3014-.26-.4545-.6228-.4603-1.0884,0-.4396.1907-.8077.572-1.1043.3698-.2966.8445-.4449,1.4223-.4449.805,0,1.4512.196,1.9375.5879l-.5556.8659c-.2003-.1557-.4304-.2692-.675-.3337-.2205-.0739-.4516-.114-.6837-.1192-.2744,0-.494.0503-.6596.1509-.1637.1011-.2456.2335-.2456.3972,0,.1801.1011.3337.3014.4608.2022.1223.547.2574,1.0333.4051.5874.1749,1.0063.4078,1.2547.6991.2485.2914.3736.662.3736,1.1123,0,.4607-.1772.858-.5325,1.1917-.3496.3284-.858.5005-1.5253.5163-.8744,0-1.6053-.2621-2.1927-.7865l.6192-.858Zm-3.9934.4608c.1695.1059.3736.1588.6115.1588.2494,0,.4555-.0715.6201-.2145.1637-.1483.2455-.4051.2465-.7707v-3.8292h1.0718v4.0358c-.0154.625-.1955,1.0751-.5402,1.3505-.1878.1593-.4073.2783-.6433.3496-.2186.0667-.4468.1015-.675.1033-.3977,0-.7501-.0689-1.0573-.2066-.3284-.1478-.6038-.4099-.8262-.7865l.7473-.6118c.1377.1854.286.3258.4449.4211Z"/>
</svg>