<?xml version="1.0" encoding="UTF-8"?>
<svg id="Capa_2" data-name="Capa 2" xmlns="http://www.w3.org/2000/svg" viewBox="0 0 14 14">
  <defs>
    <style>
      .cls-1 {
        fill: #fff;
        stroke-width: 0px;
      }
    </style>
  </defs>
  <path class="cls-1" d="m6.3333,2.6967c-.3147-.0007-.6264.0613-.9173.181-.2909.1204-.5553.2963-.778.5187-.2227.2224-.3995.4862-.5203.7773-.1207.2904-.1831.6022-.1834.917v5.3252c-.0004.4751-.1894.9303-.5253,1.2657-.3359.3355-.7913.5246-1.2661.5246-.2352,0-.4682-.0466-.6856-.136-.2175-.0901-.415-.2217-.5815-.3879-.1665-.1663-.2987-.3635-.3889-.5808-.0902-.2172-.1368-.45-.137-.6857,0-.1722.0684-.3369.1903-.4589.1218-.1219.2871-.1906.4594-.1906s.3375.0687.4594.1906c.1218.1219.1903.2867.1903.4589,0,.1308.0519.2564.1445.3495.0926.0924.218.1441.3489.1441.1308,0,.2563-.0517.3488-.1441.0925-.0931.1445-.2187.1445-.3495v-5.3244c.0003-.4855.0962-.9657.2822-1.4142.186-.4478.4585-.8549.8018-1.1977.3433-.3428.7509-.6148,1.1992-.8002.4484-.1847.9289-.28,1.4141-.2793.8009-.0007,1.5802.2593,2.2209.7396.6406.4803,1.108,1.1564,1.3319,1.9248,1.0083.0318,1.9649.4537,2.6674,1.1778.7025.7241,1.0957,1.6928,1.0965,2.7021-.0004.0318-.0027.0628-.0067.0946.0041.0318.0063.0635.0067.0953v3.4233c0,.3576-.2909.6487-.6492.6487h-6.6675c-.0852,0-.1696-.017-.2483-.0495-.0788-.0325-.1504-.0805-.2107-.1404-.0603-.0606-.1081-.1315-.1408-.2106-.0326-.0783-.0494-.1633-.0494-.2483v-3.4233c0-.3584.291-.648.6484-.648.3148,0,.6266-.0613.9175-.1818.291-.1204.5553-.2963.7781-.5187.2228-.2224.3996-.4869.5203-.7773.1207-.2911.1829-.6022.1832-.917-.0002-.3148-.0624-.6266-.1831-.917-.1206-.2911-.2973-.5549-.52-.7773-.2227-.2224-.487-.399-.7778-.5187-.2908-.1204-.6025-.1825-.9173-.1818Zm6.025,5.3422c-.0041-.0318-.0063-.0628-.0067-.0946,0-.6421-.2387-1.2605-.6697-1.7364-.431-.4751-1.0234-.7736-1.6621-.8364-.063.8165-.3955,1.5886-.9453,2.196-.5498.6074-1.2857,1.0145-2.092,1.1578v2.1842h2.0349v-1.4445c0-.1722.0684-.3369.1903-.4589.1218-.1219.2871-.1906.4594-.1906s.3375.0687.4593.1906c.1218.1219.1903.2867.1903.4589v1.4445h2.035v-2.7753c0-.0325.0022-.0643.0067-.0953Z"/>
</svg>