<?xml version="1.0" encoding="UTF-8"?>
<svg id="Capa_2" data-name="Capa 2" xmlns="http://www.w3.org/2000/svg" xmlns:xlink="http://www.w3.org/1999/xlink" viewBox="0 0 14 14">
  <defs>
    <style>
      .cls-1 {
        fill: none;
      }

      .cls-1, .cls-2 {
        stroke-width: 0px;
      }

      .cls-2 {
        fill: #fff;
      }

      .cls-3 {
        clip-path: url(#clippath);
      }
    </style>
    <clipPath id="clippath">
      <rect class="cls-1" x=".5" y=".5" width="13" height="13"/>
    </clipPath>
  </defs>
  <g class="cls-3">
    <path class="cls-2" d="m13.5699,13.1815l-.2752-.2622c-.1313-.1737-.2779-.3353-.4382-.4827l-.0027-.0022c-.1618-.147-.3298-.2867-.5043-.4192-.1398-.0961-.3319-.2118-.5763-.3472-.1984-.088-.3565-.2474-.4431-.4463l-.0022-.0054-.026-.013c.1148-.0114.2199-.0325.3207-.0623l-.0125.0032.3087-.085c.1278-.0401.2757-.0661.429-.0721h.0032c.1611-.0072.314-.0323.4588-.0753l-.0136.0033c.0701-.0173.1421-.0371.2162-.0591.074-.022.1374-.0417.1901-.059v-.0916c-.0524-.0784-.1157-.1679-.1901-.2687-.0692-.0941-.1498-.1793-.24-.2535l-.0027-.0022c-.2271-.2008-.4624-.3951-.7058-.5828-.2283-.1771-.4653-.3427-.7101-.4962l-.0368-.0217c-.1413-.0923-.2909-.1712-.4469-.2356l-.0184-.0065c-.1618-.0657-.3212-.1378-.4783-.2162-.0566-.0278-.1159-.0495-.1772-.0644l-.0059-.0011c-.0614-.0115-.1169-.0438-.1571-.0916l-.0006-.0005c-.0768-.102-.1413-.2128-.1923-.3299l-.0043-.0108c-.0524-.1224-.1091-.2399-.1701-.3526-.1311-.2535-.2578-.5112-.3803-.773-.1224-.2618-.24-.524-.3527-.7865-.0784-.1748-.1504-.3493-.2161-.5238-.0665-.1778-.1501-.3487-.2497-.5103l.0071.0124c-.2154-.3704-.4562-.7253-.721-1.0622l.0152.0206c-.2418-.3062-.506-.5941-.7903-.8613l-.0043-.0038c-.28-.262-.5752-.5072-.884-.7345l-.0266-.0189c-.3236-.2351-.6774-.4666-1.0617-.6944-.1633-.0953-.3393-.1669-.5227-.2129l-.0141-.0033-.6029-.1506-.3407-.026c-.1134-.0087-.227-.013-.3407-.013-.0766-.0402-.1472-.0911-.2096-.1511-.0607-.0569-.1245-.1103-.1912-.1598l-.0054-.0038c-.3519-.203-.7224-.3717-1.1066-.5037l-.0461-.0141c-.0956-.0545-.2022-.0869-.312-.0948-.1097-.0079-.2198.009-.3223.0493l.0048-.0017c-.1008.0396-.1917.1008-.2661.1795-.0745.0787-.1307.1728-.1645.2755l-.0017.0054c-.0572.1381-.0757.2892-.0535.4369.0221.1478.0841.2869.1792.4021l-.0011-.0017c.1964.2618.347.4676.4517.6175.0784.1051.1592.2144.2427.3277.0764.1018.1441.2183.1988.3413l.0043.0113c.0303.0645.0568.1414.0763.2205l.0017.0087c.0173.0744.0391.1553.0655.2427.0784.2008.1526.4066.2227.6175.0763.2302.1608.4252.2589.611l-.0103-.0217c.0524.0961.1049.1899.1577.2817s.1094.1813.1701.2687c.0347.0516.079.0961.1305.1311l.0017.0011c.0273.0193.0498.0446.0657.074.0159.0294.0247.0621.0259.0955-.0644.0947-.1047.2042-.1175.318l-.0006.0033c-.0164.1277-.0441.2536-.0828.3764l.0043-.0162c-.1275.3901-.1917.7981-.1902,1.2085,0,.1397.0072.2775.0217.4133l-.0016-.0168c.0325.5189.189.9956.4398,1.4083l-.0076-.0136c.1067.1598.221.299.3472.4263.0733.0825.1721.1381.2807.158.1085.0199.2206.003.3184-.0481l-.0027.0011c.0937-.0333.1754-.0937.2349-.1733.0595-.0797.094-.1753.0993-.2746v-.0011c.026-.2567.065-.4864.1187-.7107l-.0071.0363c.0136-.0365.0207-.0753.0206-.1143l-.0011-.0244v.0011c-.0043-.0394.0197-.0766.0721-.1116v.026c.0524.1224.1069.2447.1636.3667s.1156.2443.1766.3667c.1598.2432.3293.4556.5157.6511l-.0017-.0016c.1853.2003.3897.3818.6105.5422l.0119.0082c.1141.0874.2163.1827.3066.286l.0022.0022c.0863.1011.1874.1831.3033.2459l.0054.0027v-.013h.026c-.0206-.046-.0545-.0847-.0975-.111l-.0011-.0006c-.0397-.0221-.0778-.0467-.1143-.0737l.0027.0017c-.0784-.0784-.1592-.1657-.2427-.2622-.0834-.0964-.1598-.1881-.2292-.2752-.1834-.2535-.3584-.5184-.5248-.7947s-.3238-.557-.4718-.8423c-.0701-.1398-.1377-.2838-.2031-.4323s-.1288-.2925-.1902-.4322c-.0277-.0568-.0454-.1181-.052-.1809v-.0027c-.0016-.0297-.0108-.0585-.0267-.0836-.0159-.0252-.0381-.0458-.0643-.0599l-.0011-.0006c-.0622.1065-.1364.2055-.221.2952l.0006-.0006c-.0868.0919-.1568.1982-.2069.3142l-.0027.0071c-.0809.2001-.1335.4104-.1565.6251l-.0011.0103c-.026.2315-.0522.4694-.0786.7139l-.026.013-.013.013c-.0677-.0137-.1315-.0425-.1868-.0839-.0552-.0415-.1006-.0948-.1327-.156l-.0011-.0027c-.0657-.1267-.1246-.2513-.1766-.3737-.1413-.3714-.2188-.764-.2291-1.1613v-.0048c-.0284-.4246.0242-.8506.1549-1.2556l-.0065.0238c.026-.0961.0827-.2578.1701-.4853.0874-.2275.1049-.3848.0525-.4718-.0264-.0858-.0761-.1626-.1435-.2221l-.0006-.0005c-.0651-.0556-.1258-.1163-.1814-.1815l-.0017-.0022c-.061-.0881-.1199-.182-.1766-.2817s-.1069-.1979-.1506-.2947c-.1014-.2384-.1872-.4832-.2568-.7328l-.0119-.0482c-.0767-.2788-.1756-.5511-.2958-.8141l.0141.0347c-.056-.1287-.1268-.2503-.2113-.3624l.0033.0043c-.0881-.1177-.1668-.2291-.2362-.3342-.0881-.1134-.1755-.2227-.2622-.3277-.0904-.1093-.1678-.2287-.2307-.3558l-.0048-.0108c-.0279-.0566-.0495-.1159-.0645-.1772l-.0011-.0059c-.0095-.0308-.0121-.0633-.0075-.0951.0046-.0318.0163-.0623.0341-.089l-.0006.0011c.0057-.0293.0194-.0565.0396-.0786.0218-.0198.0485-.0332.0774-.039h.0011c.0428-.0277.0919-.044.1427-.0473.0508-.0033.1017.0064.1476.0284l-.0016-.0006c.1186.0336.2145.0672.3082.1057l-.0195-.0071c.1657.0701.3187.1378.4588.2032.1614.0769.299.1582.429.2486l-.0097-.0065c.0701.0437.1399.0917.2096.1441.0697.0524.1439.1049.2227.1577h.1836c.1398,0,.2882.0066.4452.02.1587.0125.3055.0422.4453.0888l-.013-.0038c.2606.0774.4842.169.6966.2789l-.0222-.0103c.2141.1091.4172.2248.6093.3472.3191.1988.5948.4025.8542.6251l-.0092-.0076c.2708.2318.5168.4697.7475.721l.0054.0065c.2253.2459.4404.5129.637.793l.0168.0254c.1809.2557.3634.5514.5276.858l.0227.0461c.0479.0942.0902.1912.1268.2903l.0059.0178c.035.1004.0742.2033.1176.3088.0961.2185.199.439.3087.6614.1098.2224.2127.4388.3087.6489l.2882.6288c.1013.2199.2145.4095.3461.5845l-.0059-.0082c.1099.1176.2567.1999.4214.2286l.0043.0006c.1993.0498.3673.1062.5298.1728l-.0255-.0092c.0775.0352.1772.0726.2795.1056l.0217.006c.1148.0352.2145.0818.3061.1403l-.0049-.0027c.1772.0991.3272.1966.4702.3028l-.0113-.0081c.1484.1091.2968.212.4452.3087.0701.0524.1876.1287.3526.2291.165.1004.2524.1943.2622.2817-.3319-.012-.6642.0038-.9934.0472l.0303-.0033c-.2749.036-.5442.107-.8011.2113l.0217-.0076c-.0681.0287-.1384.0521-.2102.0698l-.0103.0022c-.0373.0052-.0719.0228-.0981.0501-.0261.0272-.0423.0625-.046.1.0336.0415.0594.089.0775.1413l.0011.0033c.0181.0545.0406.1036.0677.1473l-.0016-.0032c.0644.1143.1338.2129.2118.3039l-.0022-.0027c.0766.0939.1625.1759.2578.2459l.0038.0027c.0881.0701.1798.1421.2752.2161.0872.0682.1858.1354.2882.1961l.013.0071c.1538.0943.3326.1842.5189.2594l.0249.0087c.2026.0813.3764.1755.5378.2877l-.0087-.006c.1051.061.2098.1288.3142.2032.1044.0744.2047.1464.3012.2161.0397.039.0742.0822.1035.1295l.0016.0027c.0498.0578.1193.095.195.1046h.0017v-.026c-.0484-.0358-.0835-.0867-.0997-.1447l-.0006-.0022c-.0128-.052-.0332-.1018-.0607-.1478l.0011.0022.0022.0022ZM3.5079,2.7788c-.0701,0-.1356.0022-.1966.0065-.0596.004-.1184.0154-.175.0342l.0049-.0017v.013h.026c.035.0524.0791.1112.1322.1766.0531.0654.1011.1288.1441.1902l.2096.4323.026-.013c.0609-.0441.1082-.1043.1365-.1739l.0011-.0027c.0282-.0753.0444-.1631.0444-.2541l-.0005-.0292v.0017c-.0246-.0238-.0445-.0521-.0585-.0834l-.0006-.0017-.0438-.0986c-.0277-.0452-.068-.0814-.1159-.104l-.0017-.0005c-.0483-.0238-.0929-.0546-.1322-.0916Z"/>
  </g>
</svg>