<?xml version="1.0" encoding="UTF-8"?>
<svg id="Capa_2" data-name="Capa 2" xmlns="http://www.w3.org/2000/svg" viewBox="0 0 14 14">
  <defs>
    <style>
      .cls-1 {
        fill: none;
        stroke: #fff;
        stroke-linecap: round;
        stroke-linejoin: round;
        stroke-width: 1.5px;
      }

      .cls-2 {
        fill: #fff;
        stroke-width: 0px;
      }
    </style>
  </defs>
  <path class="cls-1" d="m7,4.0568h-2.943m0,0h-.995c-.5285,0-1.0682.123-1.3935.5389-.3462.4441-.7185,1.2002-.7185,2.4043,0,1.2035.3723,1.9602.7185,2.4043.3253.416.865.5389,1.3935.5389h.995m0-5.8865v-.9955c0-.5278.1229-1.068.5389-1.3931.4439-.3466,1.1999-.7182,2.4041-.7182,1.2034,0,1.9603.3715,2.4041.7182.416.3251.5389.8654.5389,1.3931v.9955m-2.943,5.8865h2.943m0,0h.995c.5276,0,1.0682-.123,1.3926-.5389.347-.4441.7194-1.2002.7194-2.4043,0-1.2035-.3715-1.9602-.7185-2.4043-.3253-.416-.8659-.5389-1.3935-.5389h-.995m0,5.8865v.9948c0,.5279-.1229,1.0687-.5389,1.3931-.4439.3473-1.1999.7189-2.4041.7189-1.2034,0-1.9603-.3715-2.4041-.7182-.416-.325-.5389-.866-.5389-1.3931v-.9955m5.8861-5.8865v1.6351c0,.3469-.1378.6797-.3828.925-.2459.2453-.5781.3831-.9252.3831h-3.27c-.3471,0-.6793.1378-.9252.3831-.245.2453-.3828.5781-.3828.925v1.6351"/>
  <path class="cls-2" d="m8.962,11.2514c0,.1301-.0514.2549-.1439.3468-.0915.092-.2162.1437-.3462.1437-.1308,0-.2555-.0517-.347-.1437-.0924-.0919-.1439-.2167-.1439-.3468s.0514-.2549.1439-.3468c.0915-.092.2162-.1437.347-.1437.1299,0,.2546.0517.3462.1437.0924.0919.1439.2167.1439.3468ZM5.038,2.7486c0-.1301.0514-.2549.1439-.3468.0915-.092.2162-.1437.3462-.1437.1308,0,.2555.0517.347.1437.0924.0919.1439.2167.1439.3468s-.0514.2549-.1439.3468c-.0915.092-.2162.1437-.347.1437-.1299,0-.2546-.0517-.3462-.1437-.0924-.0919-.1439-.2167-.1439-.3468Z"/>
</svg>