<?xml version="1.0" encoding="UTF-8"?>
<svg id="Capa_2" data-name="Capa 2" xmlns="http://www.w3.org/2000/svg" viewBox="0 0 14 14">
  <defs>
    <style>
      .cls-1 {
        fill: #fff;
        stroke-width: 0px;
      }
    </style>
  </defs>
  <path class="cls-1" d="m7,.5c-.8537,0-1.6987.1723-2.4873.5071-.7887.3348-1.5054.8251-2.1086,1.4442-1.2194,1.2488-1.9041,2.9434-1.9041,4.71,0,2.9443,1.8659,5.4418,4.446,6.3282.325.0533.429-.1528.429-.3331v-1.1253c-1.8001.3988-2.184-.8935-2.184-.8935-.299-.7727-.7211-.9788-.7211-.9788-.5919-.413.0451-.3997.0451-.3997.65.0462.9949.6866.9949.6866.5651,1.0125,1.5201.7123,1.8911.5525.0581-.4326.2279-.7256.4099-.8926-1.443-.1661-2.9579-.739-2.9579-3.2774,0-.739.247-1.3323.6699-1.8057-.065-.1661-.2929-.8589.0641-1.7577,0,0,.5469-.1803,1.7879.6795.5139-.1466,1.0729-.2203,1.625-.2203s1.1119.0737,1.625.2203c1.2411-.8598,1.7879-.6795,1.7879-.6795.3571.8988.13,1.5916.065,1.7577.4221.4734.6691,1.0667.6691,1.8057,0,2.5446-1.521,3.1042-2.9701,3.2703.234.2069.4481.6137.4481,1.2328v1.8252c0,.1803.104.3935.4359.3331,2.5801-.8926,4.4391-3.3839,4.4391-6.3282,0-.8749-.1681-1.7408-.4949-2.5491-.3267-.8082-.8051-1.5428-1.4092-2.1609-.6032-.6191-1.3199-1.1093-2.1086-1.4442-.7887-.3348-1.6337-.5071-2.4873-.5071Z"/>
</svg>