<?xml version="1.0" encoding="UTF-8"?>
<svg id="Capa_2" data-name="Capa 2" xmlns="http://www.w3.org/2000/svg" viewBox="0 0 14 14">
  <defs>
    <style>
      .cls-1 {
        fill: #fff;
        stroke-width: 0px;
      }
    </style>
  </defs>
  <path class="cls-1" d="m.4702,6.4064v1.1872s1.1872,0,1.1872,2.3745v.5936c0,.4725.1876.9253.5216,1.2593s.7868.5216,1.2593.5216h7.1234c.4725,0,.9253-.1876,1.2593-.5216s.5216-.7867.5216-1.2593v-.5936c0-2.3745,1.1872-2.3745,1.1872-2.3745v-1.1872s-1.1872,0-1.1872-2.3745v-.5936c0-.4725-.1876-.9253-.5216-1.2593s-.7868-.5216-1.2593-.5216H3.4383c-.4725,0-.9253.1876-1.2593.5216s-.5216.7867-.5216,1.2593v.5936c0,2.3745-1.1872,2.3745-1.1872,2.3745Zm11.6784.5936c-.0174.0166-.0348.034-.0514.0514-.5984.5976-.9419,1.5466-.9419,2.9166v.5936c0,.1575-.0625.3087-.1741.4195-.1108.1116-.262.1741-.4195.1741H3.4383c-.1575,0-.3087-.0625-.4195-.1741-.1116-.1108-.1741-.262-.1741-.4195v-.5936c0-1.3701-.3435-2.3191-.9411-2.9166l-.053-.0514c.0182-.0166.0356-.034.053-.0514.5976-.5976.9411-1.5466.9411-2.9166v-.5936c0-.1575.0625-.3087.1741-.4195.1108-.1116.262-.1741.4195-.1741h7.1234c.1575,0,.3087.0625.4195.1741.1116.1108.1741.262.1741.4195v.5936c0,1.3701.3435,2.3191.9419,2.9166l.0514.0514Zm-7.2263-2.9681v5.9362h2.9681c.3855,0,.7606-.1251,1.0685-.3554.3087-.2311.5334-.5564.6419-.926.1076-.3696.0926-.7646-.0428-1.1255-.1353-.3609-.3839-.668-.7092-.8754.1528-.2707.2319-.577.2287-.888-.0024-.3111-.0863-.6158-.2438-.8841-.1567-.2683-.3815-.4907-.6506-.6458-.2699-.1543-.5754-.2359-.8865-.2359h-2.3745Zm1.1872,2.3745v-1.1872h1.1872c.1575,0,.3087.0625.4195.1741.1116.1108.1741.262.1741.4195s-.0625.3087-.1741.4195c-.1108.1116-.262.1741-.4195.1741h-1.1872Zm0,1.1872h1.7808c.1575,0,.3087.0625.4195.1741.1116.1108.1741.262.1741.4195s-.0625.3087-.1741.4195c-.1108.1116-.262.1741-.4195.1741h-1.7808v-1.1872Z"/>
</svg>